  0
SECTION
  2
HEADER
  9
$ACADVER
  1
AC1009
  9
$FILLMODE
 70
 0
  9
$SPLFRAME
 70
 1
  9
$EXTMIN
 10
0
 20
0
 30
0.0
  9
$EXTMAX
 10
1058.33
 20
1058.33
 30
0.0
  0
ENDSEC
  0
SECTION
  2
TABLES
  0
TABLE
  2
LAYER
 70
1
  0
LAYER
  2
0
 70
     0
 62
     7
  6
CONTINUOUS
  0
ENDTAB
  0
ENDSEC
  0
SECTION
  2
ENTITIES
  0
LINE
  8
0
 62
     0
 10
236.097
 20
86.3353
 30
0.0
 11
236.252
 21
86.3286
 31
0.0
  0
LINE
  8
0
 62
     0
 10
236.252
 20
86.3286
 30
0.0
 11
236.408
 21
86.3106
 31
0.0
  0
LINE
  8
0
 62
     0
 10
236.408
 20
86.3106
 30
0.0
 11
236.562
 21
86.2803
 31
0.0
  0
LINE
  8
0
 62
     0
 10
236.562
 20
86.2803
 30
0.0
 11
236.714
 21
86.2376
 31
0.0
  0
LINE
  8
0
 62
     0
 10
236.714
 20
86.2376
 30
0.0
 11
236.861
 21
86.1826
 31
0.0
  0
LINE
  8
0
 62
     0
 10
236.861
 20
86.1826
 30
0.0
 11
237.003
 21
86.1176
 31
0.0
  0
LINE
  8
0
 62
     0
 10
237.003
 20
86.1176
 30
0.0
 11
237.141
 21
86.0407
 31
0.0
  0
LINE
  8
0
 62
     0
 10
237.141
 20
86.0407
 30
0.0
 11
237.272
 21
85.9536
 31
0.0
  0
LINE
  8
0
 62
     0
 10
237.272
 20
85.9536
 30
0.0
 11
237.395
 21
85.8559
 31
0.0
  0
LINE
  8
0
 62
     0
 10
237.395
 20
85.8559
 30
0.0
 11
237.51
 21
85.7497
 31
0.0
  0
LINE
  8
0
 62
     0
 10
237.51
 20
85.7497
 30
0.0
 11
237.617
 21
85.634
 31
0.0
  0
LINE
  8
0
 62
     0
 10
237.617
 20
85.634
 30
0.0
 11
237.714
 21
85.5116
 31
0.0
  0
LINE
  8
0
 62
     0
 10
237.714
 20
85.5116
 30
0.0
 11
237.801
 21
85.3803
 31
0.0
  0
LINE
  8
0
 62
     0
 10
237.801
 20
85.3803
 30
0.0
 11
237.878
 21
85.2428
 31
0.0
  0
LINE
  8
0
 62
     0
 10
237.878
 20
85.2428
 30
0.0
 11
237.943
 21
85.1006
 31
0.0
  0
LINE
  8
0
 62
     0
 10
237.943
 20
85.1006
 30
0.0
 11
237.998
 21
84.9545
 31
0.0
  0
LINE
  8
0
 62
     0
 10
237.998
 20
84.9545
 30
0.0
 11
238.041
 21
84.8018
 31
0.0
  0
LINE
  8
0
 62
     0
 10
238.041
 20
84.8018
 30
0.0
 11
238.071
 21
84.6487
 31
0.0
  0
LINE
  8
0
 62
     0
 10
238.071
 20
84.6487
 30
0.0
 11
238.089
 21
84.4917
 31
0.0
  0
LINE
  8
0
 62
     0
 10
238.089
 20
84.4917
 30
0.0
 11
238.096
 21
84.3347
 31
0.0
  0
LINE
  8
0
 62
     0
 10
238.096
 20
84.3347
 30
0.0
 11
238.096
 21
2.3344
 31
0.0
  0
LINE
  8
0
 62
     0
 10
238.096
 20
2.3344
 30
0.0
 11
238.089
 21
2.17868
 31
0.0
  0
LINE
  8
0
 62
     0
 10
238.089
 20
2.17868
 30
0.0
 11
238.071
 21
2.02158
 31
0.0
  0
LINE
  8
0
 62
     0
 10
238.071
 20
2.02158
 30
0.0
 11
238.041
 21
1.86862
 31
0.0
  0
LINE
  8
0
 62
     0
 10
238.041
 20
1.86862
 30
0.0
 11
237.998
 21
1.71566
 31
0.0
  0
LINE
  8
0
 62
     0
 10
237.998
 20
1.71566
 30
0.0
 11
237.943
 21
1.56959
 31
0.0
  0
LINE
  8
0
 62
     0
 10
237.943
 20
1.56959
 30
0.0
 11
237.878
 21
1.42765
 31
0.0
  0
LINE
  8
0
 62
     0
 10
237.878
 20
1.42765
 30
0.0
 11
237.801
 21
1.28984
 31
0.0
  0
LINE
  8
0
 62
     0
 10
237.801
 20
1.28984
 30
0.0
 11
237.714
 21
1.15893
 31
0.0
  0
LINE
  8
0
 62
     0
 10
237.714
 20
1.15893
 30
0.0
 11
237.617
 21
1.03628
 31
0.0
  0
LINE
  8
0
 62
     0
 10
237.617
 20
1.03628
 30
0.0
 11
237.51
 21
0.920531
 31
0.0
  0
LINE
  8
0
 62
     0
 10
237.51
 20
0.920531
 30
0.0
 11
237.395
 21
0.814419
 31
0.0
  0
LINE
  8
0
 62
     0
 10
237.395
 20
0.814419
 30
0.0
 11
237.272
 21
0.71658
 31
0.0
  0
LINE
  8
0
 62
     0
 10
237.272
 20
0.71658
 30
0.0
 11
237.141
 21
0.628385
 31
0.0
  0
LINE
  8
0
 62
     0
 10
237.141
 20
0.628385
 30
0.0
 11
237.003
 21
0.552595
 31
0.0
  0
LINE
  8
0
 62
     0
 10
237.003
 20
0.552595
 30
0.0
 11
236.861
 21
0.486449
 31
0.0
  0
LINE
  8
0
 62
     0
 10
236.861
 20
0.486449
 30
0.0
 11
236.714
 21
0.432703
 31
0.0
  0
LINE
  8
0
 62
     0
 10
236.714
 20
0.432703
 30
0.0
 11
236.562
 21
0.389985
 31
0.0
  0
LINE
  8
0
 62
     0
 10
236.562
 20
0.389985
 30
0.0
 11
236.408
 21
0.359668
 31
0.0
  0
LINE
  8
0
 62
     0
 10
236.408
 20
0.359668
 30
0.0
 11
236.252
 21
0.341753
 31
0.0
  0
LINE
  8
0
 62
     0
 10
236.252
 20
0.341753
 30
0.0
 11
236.095
 21
0.334863
 31
0.0
  0
LINE
  8
0
 62
     0
 10
236.095
 20
0.334863
 30
0.0
 11
2.096
 21
0.333485
 31
0.0
  0
LINE
  8
0
 62
     0
 10
2.096
 20
0.333485
 30
0.0
 11
1.9389
 21
0.341753
 31
0.0
  0
LINE
  8
0
 62
     0
 10
1.9389
 20
0.341753
 30
0.0
 11
1.7818
 21
0.359668
 31
0.0
  0
LINE
  8
0
 62
     0
 10
1.7818
 20
0.359668
 30
0.0
 11
1.62884
 21
0.389985
 31
0.0
  0
LINE
  8
0
 62
     0
 10
1.62884
 20
0.389985
 30
0.0
 11
1.47588
 21
0.432703
 31
0.0
  0
LINE
  8
0
 62
     0
 10
1.47588
 20
0.432703
 30
0.0
 11
1.32981
 21
0.486449
 31
0.0
  0
LINE
  8
0
 62
     0
 10
1.32981
 20
0.486449
 30
0.0
 11
1.18787
 21
0.552595
 31
0.0
  0
LINE
  8
0
 62
     0
 10
1.18787
 20
0.552595
 30
0.0
 11
1.05006
 21
0.628385
 31
0.0
  0
LINE
  8
0
 62
     0
 10
1.05006
 20
0.628385
 30
0.0
 11
0.919152
 21
0.71658
 31
0.0
  0
LINE
  8
0
 62
     0
 10
0.919152
 20
0.71658
 30
0.0
 11
0.796505
 21
0.814419
 31
0.0
  0
LINE
  8
0
 62
     0
 10
0.796505
 20
0.814419
 30
0.0
 11
0.680752
 21
0.920531
 31
0.0
  0
LINE
  8
0
 62
     0
 10
0.680752
 20
0.920531
 30
0.0
 11
0.574643
 21
1.03628
 31
0.0
  0
LINE
  8
0
 62
     0
 10
0.574643
 20
1.03628
 30
0.0
 11
0.4768
 21
1.15893
 31
0.0
  0
LINE
  8
0
 62
     0
 10
0.4768
 20
1.15893
 30
0.0
 11
0.389985
 21
1.28984
 31
0.0
  0
LINE
  8
0
 62
     0
 10
0.389985
 20
1.28984
 30
0.0
 11
0.312815
 21
1.42765
 31
0.0
  0
LINE
  8
0
 62
     0
 10
0.312815
 20
1.42765
 30
0.0
 11
0.248047
 21
1.56959
 31
0.0
  0
LINE
  8
0
 62
     0
 10
0.248047
 20
1.56959
 30
0.0
 11
0.192925
 21
1.71566
 31
0.0
  0
LINE
  8
0
 62
     0
 10
0.192925
 20
1.71566
 30
0.0
 11
0.150206
 21
1.86862
 31
0.0
  0
LINE
  8
0
 62
     0
 10
0.150206
 20
1.86862
 30
0.0
 11
0.119889
 21
2.02158
 31
0.0
  0
LINE
  8
0
 62
     0
 10
0.119889
 20
2.02158
 30
0.0
 11
0.101975
 21
2.17868
 31
0.0
  0
LINE
  8
0
 62
     0
 10
0.101975
 20
2.17868
 30
0.0
 11
0.0950846
 21
2.3344
 31
0.0
  0
LINE
  8
0
 62
     0
 10
0.0950846
 20
2.3344
 30
0.0
 11
0.0950846
 21
84.3347
 31
0.0
  0
LINE
  8
0
 62
     0
 10
0.0950846
 20
84.3347
 30
0.0
 11
0.101975
 21
84.4917
 31
0.0
  0
LINE
  8
0
 62
     0
 10
0.101975
 20
84.4917
 30
0.0
 11
0.119889
 21
84.6487
 31
0.0
  0
LINE
  8
0
 62
     0
 10
0.119889
 20
84.6487
 30
0.0
 11
0.150206
 21
84.8018
 31
0.0
  0
LINE
  8
0
 62
     0
 10
0.150206
 20
84.8018
 30
0.0
 11
0.192925
 21
84.9545
 31
0.0
  0
LINE
  8
0
 62
     0
 10
0.192925
 20
84.9545
 30
0.0
 11
0.248047
 21
85.1006
 31
0.0
  0
LINE
  8
0
 62
     0
 10
0.248047
 20
85.1006
 30
0.0
 11
0.312815
 21
85.2428
 31
0.0
  0
LINE
  8
0
 62
     0
 10
0.312815
 20
85.2428
 30
0.0
 11
0.389985
 21
85.3803
 31
0.0
  0
LINE
  8
0
 62
     0
 10
0.389985
 20
85.3803
 30
0.0
 11
0.4768
 21
85.5116
 31
0.0
  0
LINE
  8
0
 62
     0
 10
0.4768
 20
85.5116
 30
0.0
 11
0.574643
 21
85.634
 31
0.0
  0
LINE
  8
0
 62
     0
 10
0.574643
 20
85.634
 30
0.0
 11
0.680752
 21
85.7497
 31
0.0
  0
LINE
  8
0
 62
     0
 10
0.680752
 20
85.7497
 30
0.0
 11
0.796505
 21
85.8559
 31
0.0
  0
LINE
  8
0
 62
     0
 10
0.796505
 20
85.8559
 30
0.0
 11
0.919152
 21
85.9536
 31
0.0
  0
LINE
  8
0
 62
     0
 10
0.919152
 20
85.9536
 30
0.0
 11
1.05006
 21
86.0407
 31
0.0
  0
LINE
  8
0
 62
     0
 10
1.05006
 20
86.0407
 30
0.0
 11
1.18787
 21
86.1176
 31
0.0
  0
LINE
  8
0
 62
     0
 10
1.18787
 20
86.1176
 30
0.0
 11
1.32981
 21
86.1826
 31
0.0
  0
LINE
  8
0
 62
     0
 10
1.32981
 20
86.1826
 30
0.0
 11
1.47588
 21
86.2376
 31
0.0
  0
LINE
  8
0
 62
     0
 10
1.47588
 20
86.2376
 30
0.0
 11
1.62884
 21
86.2803
 31
0.0
  0
LINE
  8
0
 62
     0
 10
1.62884
 20
86.2803
 30
0.0
 11
1.7818
 21
86.3106
 31
0.0
  0
LINE
  8
0
 62
     0
 10
1.7818
 20
86.3106
 30
0.0
 11
1.9389
 21
86.3286
 31
0.0
  0
LINE
  8
0
 62
     0
 10
1.9389
 20
86.3286
 30
0.0
 11
2.096
 21
86.3353
 31
0.0
  0
LINE
  8
0
 62
     0
 10
2.096
 20
86.3353
 30
0.0
 11
236.097
 21
86.3353
 31
0.0
  0
LINE
  8
0
 62
     0
 10
235.132
 20
4.26089
 30
0.0
 11
234.714
 21
4.04869
 31
0.0
  0
LINE
  8
0
 62
     0
 10
234.714
 20
4.04869
 30
0.0
 11
234.382
 21
3.71658
 31
0.0
  0
LINE
  8
0
 62
     0
 10
234.382
 20
3.71658
 30
0.0
 11
234.17
 21
3.29765
 31
0.0
  0
LINE
  8
0
 62
     0
 10
234.17
 20
3.29765
 30
0.0
 11
234.096
 21
2.83463
 31
0.0
  0
LINE
  8
0
 62
     0
 10
234.096
 20
2.83463
 30
0.0
 11
234.17
 21
2.37161
 31
0.0
  0
LINE
  8
0
 62
     0
 10
234.17
 20
2.37161
 30
0.0
 11
234.382
 21
1.95268
 31
0.0
  0
LINE
  8
0
 62
     0
 10
234.382
 20
1.95268
 30
0.0
 11
234.714
 21
1.62057
 31
0.0
  0
LINE
  8
0
 62
     0
 10
234.714
 20
1.62057
 30
0.0
 11
235.132
 21
1.40836
 31
0.0
  0
LINE
  8
0
 62
     0
 10
235.132
 20
1.40836
 30
0.0
 11
235.596
 21
1.33394
 31
0.0
  0
LINE
  8
0
 62
     0
 10
235.596
 20
1.33394
 30
0.0
 11
236.059
 21
1.40836
 31
0.0
  0
LINE
  8
0
 62
     0
 10
236.059
 20
1.40836
 30
0.0
 11
236.477
 21
1.62057
 31
0.0
  0
LINE
  8
0
 62
     0
 10
236.477
 20
1.62057
 30
0.0
 11
236.809
 21
1.95268
 31
0.0
  0
LINE
  8
0
 62
     0
 10
236.809
 20
1.95268
 30
0.0
 11
237.023
 21
2.37161
 31
0.0
  0
LINE
  8
0
 62
     0
 10
237.023
 20
2.37161
 30
0.0
 11
237.097
 21
2.83463
 31
0.0
  0
LINE
  8
0
 62
     0
 10
237.097
 20
2.83463
 30
0.0
 11
237.023
 21
3.29765
 31
0.0
  0
LINE
  8
0
 62
     0
 10
237.023
 20
3.29765
 30
0.0
 11
236.809
 21
3.71658
 31
0.0
  0
LINE
  8
0
 62
     0
 10
236.809
 20
3.71658
 30
0.0
 11
236.477
 21
4.04869
 31
0.0
  0
LINE
  8
0
 62
     0
 10
236.477
 20
4.04869
 30
0.0
 11
236.059
 21
4.26089
 31
0.0
  0
LINE
  8
0
 62
     0
 10
236.059
 20
4.26089
 30
0.0
 11
235.596
 21
4.33395
 31
0.0
  0
LINE
  8
0
 62
     0
 10
235.596
 20
4.33395
 30
0.0
 11
235.132
 21
4.26089
 31
0.0
  0
LINE
  8
0
 62
     0
 10
118.631
 20
4.26089
 30
0.0
 11
118.214
 21
4.04869
 31
0.0
  0
LINE
  8
0
 62
     0
 10
118.214
 20
4.04869
 30
0.0
 11
117.881
 21
3.71658
 31
0.0
  0
LINE
  8
0
 62
     0
 10
117.881
 20
3.71658
 30
0.0
 11
117.668
 21
3.29765
 31
0.0
  0
LINE
  8
0
 62
     0
 10
117.668
 20
3.29765
 30
0.0
 11
117.595
 21
2.83463
 31
0.0
  0
LINE
  8
0
 62
     0
 10
117.595
 20
2.83463
 30
0.0
 11
117.668
 21
2.37161
 31
0.0
  0
LINE
  8
0
 62
     0
 10
117.668
 20
2.37161
 30
0.0
 11
117.881
 21
1.95268
 31
0.0
  0
LINE
  8
0
 62
     0
 10
117.881
 20
1.95268
 30
0.0
 11
118.214
 21
1.62057
 31
0.0
  0
LINE
  8
0
 62
     0
 10
118.214
 20
1.62057
 30
0.0
 11
118.631
 21
1.40836
 31
0.0
  0
LINE
  8
0
 62
     0
 10
118.631
 20
1.40836
 30
0.0
 11
119.096
 21
1.33394
 31
0.0
  0
LINE
  8
0
 62
     0
 10
119.096
 20
1.33394
 30
0.0
 11
119.56
 21
1.40836
 31
0.0
  0
LINE
  8
0
 62
     0
 10
119.56
 20
1.40836
 30
0.0
 11
119.978
 21
1.62057
 31
0.0
  0
LINE
  8
0
 62
     0
 10
119.978
 20
1.62057
 30
0.0
 11
120.31
 21
1.95268
 31
0.0
  0
LINE
  8
0
 62
     0
 10
120.31
 20
1.95268
 30
0.0
 11
120.522
 21
2.37161
 31
0.0
  0
LINE
  8
0
 62
     0
 10
120.522
 20
2.37161
 30
0.0
 11
120.595
 21
2.83463
 31
0.0
  0
LINE
  8
0
 62
     0
 10
120.595
 20
2.83463
 30
0.0
 11
120.522
 21
3.29765
 31
0.0
  0
LINE
  8
0
 62
     0
 10
120.522
 20
3.29765
 30
0.0
 11
120.31
 21
3.71658
 31
0.0
  0
LINE
  8
0
 62
     0
 10
120.31
 20
3.71658
 30
0.0
 11
119.978
 21
4.04869
 31
0.0
  0
LINE
  8
0
 62
     0
 10
119.978
 20
4.04869
 30
0.0
 11
119.56
 21
4.26089
 31
0.0
  0
LINE
  8
0
 62
     0
 10
119.56
 20
4.26089
 30
0.0
 11
119.096
 21
4.33395
 31
0.0
  0
LINE
  8
0
 62
     0
 10
119.096
 20
4.33395
 30
0.0
 11
118.631
 21
4.26089
 31
0.0
  0
LINE
  8
0
 62
     0
 10
2.13183
 20
4.26089
 30
0.0
 11
1.7129
 21
4.04869
 31
0.0
  0
LINE
  8
0
 62
     0
 10
1.7129
 20
4.04869
 30
0.0
 11
1.38217
 21
3.71658
 31
0.0
  0
LINE
  8
0
 62
     0
 10
1.38217
 20
3.71658
 30
0.0
 11
1.16858
 21
3.29765
 31
0.0
  0
LINE
  8
0
 62
     0
 10
1.16858
 20
3.29765
 30
0.0
 11
1.09416
 21
2.83463
 31
0.0
  0
LINE
  8
0
 62
     0
 10
1.09416
 20
2.83463
 30
0.0
 11
1.16858
 21
2.37161
 31
0.0
  0
LINE
  8
0
 62
     0
 10
1.16858
 20
2.37161
 30
0.0
 11
1.38217
 21
1.95268
 31
0.0
  0
LINE
  8
0
 62
     0
 10
1.38217
 20
1.95268
 30
0.0
 11
1.7129
 21
1.62057
 31
0.0
  0
LINE
  8
0
 62
     0
 10
1.7129
 20
1.62057
 30
0.0
 11
2.13183
 21
1.40836
 31
0.0
  0
LINE
  8
0
 62
     0
 10
2.13183
 20
1.40836
 30
0.0
 11
2.59485
 21
1.33394
 31
0.0
  0
LINE
  8
0
 62
     0
 10
2.59485
 20
1.33394
 30
0.0
 11
3.05787
 21
1.40836
 31
0.0
  0
LINE
  8
0
 62
     0
 10
3.05787
 20
1.40836
 30
0.0
 11
3.47679
 21
1.62057
 31
0.0
  0
LINE
  8
0
 62
     0
 10
3.47679
 20
1.62057
 30
0.0
 11
3.80891
 21
1.95268
 31
0.0
  0
LINE
  8
0
 62
     0
 10
3.80891
 20
1.95268
 30
0.0
 11
4.0211
 21
2.37161
 31
0.0
  0
LINE
  8
0
 62
     0
 10
4.0211
 20
2.37161
 30
0.0
 11
4.09554
 21
2.83463
 31
0.0
  0
LINE
  8
0
 62
     0
 10
4.09554
 20
2.83463
 30
0.0
 11
4.0211
 21
3.29765
 31
0.0
  0
LINE
  8
0
 62
     0
 10
4.0211
 20
3.29765
 30
0.0
 11
3.80891
 21
3.71658
 31
0.0
  0
LINE
  8
0
 62
     0
 10
3.80891
 20
3.71658
 30
0.0
 11
3.47679
 21
4.04869
 31
0.0
  0
LINE
  8
0
 62
     0
 10
3.47679
 20
4.04869
 30
0.0
 11
3.05787
 21
4.26089
 31
0.0
  0
LINE
  8
0
 62
     0
 10
3.05787
 20
4.26089
 30
0.0
 11
2.59485
 21
4.33395
 31
0.0
  0
LINE
  8
0
 62
     0
 10
2.59485
 20
4.33395
 30
0.0
 11
2.13183
 21
4.26089
 31
0.0
  0
LINE
  8
0
 62
     0
 10
112.095
 20
21.835
 30
0.0
 11
112.095
 21
17.1345
 31
0.0
  0
LINE
  8
0
 62
     0
 10
112.095
 20
17.1345
 30
0.0
 11
110.571
 21
17.1345
 31
0.0
  0
LINE
  8
0
 62
     0
 10
110.571
 20
17.1345
 30
0.0
 11
110.571
 21
20.3647
 31
0.0
  0
LINE
  8
0
 62
     0
 10
110.571
 20
20.3647
 30
0.0
 11
108.846
 21
20.3647
 31
0.0
  0
LINE
  8
0
 62
     0
 10
108.846
 20
20.3647
 30
0.0
 11
108.846
 21
21.2852
 31
0.0
  0
LINE
  8
0
 62
     0
 10
108.846
 20
21.2852
 30
0.0
 11
105.545
 21
21.2852
 31
0.0
  0
LINE
  8
0
 62
     0
 10
105.545
 20
21.2852
 30
0.0
 11
105.545
 21
20.3647
 31
0.0
  0
LINE
  8
0
 62
     0
 10
105.545
 20
20.3647
 30
0.0
 11
103.82
 21
20.3647
 31
0.0
  0
LINE
  8
0
 62
     0
 10
103.82
 20
20.3647
 30
0.0
 11
103.82
 21
17.1345
 31
0.0
  0
LINE
  8
0
 62
     0
 10
103.82
 20
17.1345
 30
0.0
 11
102.996
 21
17.1345
 31
0.0
  0
LINE
  8
0
 62
     0
 10
102.996
 20
17.1345
 30
0.0
 11
102.996
 21
14.3357
 31
0.0
  0
LINE
  8
0
 62
     0
 10
102.996
 20
14.3357
 30
0.0
 11
103.82
 21
14.3357
 31
0.0
  0
LINE
  8
0
 62
     0
 10
103.82
 20
14.3357
 30
0.0
 11
103.82
 21
8.06566
 31
0.0
  0
LINE
  8
0
 62
     0
 10
103.82
 20
8.06566
 30
0.0
 11
105.545
 21
8.06566
 31
0.0
  0
LINE
  8
0
 62
     0
 10
105.545
 20
8.06566
 30
0.0
 11
105.545
 21
7.08448
 31
0.0
  0
LINE
  8
0
 62
     0
 10
105.545
 20
7.08448
 30
0.0
 11
108.846
 21
7.08448
 31
0.0
  0
LINE
  8
0
 62
     0
 10
108.846
 20
7.08448
 30
0.0
 11
108.846
 21
8.06566
 31
0.0
  0
LINE
  8
0
 62
     0
 10
108.846
 20
8.06566
 30
0.0
 11
110.571
 21
8.06566
 31
0.0
  0
LINE
  8
0
 62
     0
 10
110.571
 20
8.06566
 30
0.0
 11
110.571
 21
12.5347
 31
0.0
  0
LINE
  8
0
 62
     0
 10
110.571
 20
12.5347
 30
0.0
 11
112.095
 21
12.5347
 31
0.0
  0
LINE
  8
0
 62
     0
 10
112.095
 20
12.5347
 30
0.0
 11
112.095
 21
7.83551
 31
0.0
  0
LINE
  8
0
 62
     0
 10
112.095
 20
7.83551
 30
0.0
 11
126.096
 21
7.83551
 31
0.0
  0
LINE
  8
0
 62
     0
 10
126.096
 20
7.83551
 30
0.0
 11
126.096
 21
12.5347
 31
0.0
  0
LINE
  8
0
 62
     0
 10
126.096
 20
12.5347
 30
0.0
 11
127.62
 21
12.5347
 31
0.0
  0
LINE
  8
0
 62
     0
 10
127.62
 20
12.5347
 30
0.0
 11
127.62
 21
8.06566
 31
0.0
  0
LINE
  8
0
 62
     0
 10
127.62
 20
8.06566
 30
0.0
 11
129.345
 21
8.06566
 31
0.0
  0
LINE
  8
0
 62
     0
 10
129.345
 20
8.06566
 30
0.0
 11
129.345
 21
7.08448
 31
0.0
  0
LINE
  8
0
 62
     0
 10
129.345
 20
7.08448
 30
0.0
 11
132.646
 21
7.08448
 31
0.0
  0
LINE
  8
0
 62
     0
 10
132.646
 20
7.08448
 30
0.0
 11
132.646
 21
8.06566
 31
0.0
  0
LINE
  8
0
 62
     0
 10
132.646
 20
8.06566
 30
0.0
 11
134.371
 21
8.06566
 31
0.0
  0
LINE
  8
0
 62
     0
 10
134.371
 20
8.06566
 30
0.0
 11
134.371
 21
14.3357
 31
0.0
  0
LINE
  8
0
 62
     0
 10
134.371
 20
14.3357
 30
0.0
 11
135.195
 21
14.3357
 31
0.0
  0
LINE
  8
0
 62
     0
 10
135.195
 20
14.3357
 30
0.0
 11
135.195
 21
17.1345
 31
0.0
  0
LINE
  8
0
 62
     0
 10
135.195
 20
17.1345
 30
0.0
 11
134.371
 21
17.1345
 31
0.0
  0
LINE
  8
0
 62
     0
 10
134.371
 20
17.1345
 30
0.0
 11
134.371
 21
20.3647
 31
0.0
  0
LINE
  8
0
 62
     0
 10
134.371
 20
20.3647
 30
0.0
 11
132.646
 21
20.3647
 31
0.0
  0
LINE
  8
0
 62
     0
 10
132.646
 20
20.3647
 30
0.0
 11
132.646
 21
21.2852
 31
0.0
  0
LINE
  8
0
 62
     0
 10
132.646
 20
21.2852
 30
0.0
 11
129.345
 21
21.2852
 31
0.0
  0
LINE
  8
0
 62
     0
 10
129.345
 20
21.2852
 30
0.0
 11
129.345
 21
20.3647
 31
0.0
  0
LINE
  8
0
 62
     0
 10
129.345
 20
20.3647
 30
0.0
 11
127.62
 21
20.3647
 31
0.0
  0
LINE
  8
0
 62
     0
 10
127.62
 20
20.3647
 30
0.0
 11
127.62
 21
17.1345
 31
0.0
  0
LINE
  8
0
 62
     0
 10
127.62
 20
17.1345
 30
0.0
 11
126.096
 21
17.1345
 31
0.0
  0
LINE
  8
0
 62
     0
 10
126.096
 20
17.1345
 30
0.0
 11
126.096
 21
21.835
 31
0.0
  0
LINE
  8
0
 62
     0
 10
126.096
 20
21.835
 30
0.0
 11
112.095
 21
21.835
 31
0.0
  0
LINE
  8
0
 62
     0
 10
7.59576
 20
21.835
 30
0.0
 11
21.5952
 21
21.835
 31
0.0
  0
LINE
  8
0
 62
     0
 10
21.5952
 20
21.835
 30
0.0
 11
21.5952
 21
7.83551
 31
0.0
  0
LINE
  8
0
 62
     0
 10
21.5952
 20
7.83551
 30
0.0
 11
7.59576
 21
7.83551
 31
0.0
  0
LINE
  8
0
 62
     0
 10
7.59576
 20
7.83551
 30
0.0
 11
7.59576
 21
21.835
 31
0.0
  0
LINE
  8
0
 62
     0
 10
26.5961
 20
21.835
 30
0.0
 11
40.5955
 21
21.835
 31
0.0
  0
LINE
  8
0
 62
     0
 10
40.5955
 20
21.835
 30
0.0
 11
40.5955
 21
7.83551
 31
0.0
  0
LINE
  8
0
 62
     0
 10
40.5955
 20
7.83551
 30
0.0
 11
26.5961
 21
7.83551
 31
0.0
  0
LINE
  8
0
 62
     0
 10
26.5961
 20
7.83551
 30
0.0
 11
26.5961
 21
21.835
 31
0.0
  0
LINE
  8
0
 62
     0
 10
45.5951
 20
21.835
 30
0.0
 11
59.5962
 21
21.835
 31
0.0
  0
LINE
  8
0
 62
     0
 10
59.5962
 20
21.835
 30
0.0
 11
59.5962
 21
7.83551
 31
0.0
  0
LINE
  8
0
 62
     0
 10
59.5962
 20
7.83551
 30
0.0
 11
45.5951
 21
7.83551
 31
0.0
  0
LINE
  8
0
 62
     0
 10
45.5951
 20
7.83551
 30
0.0
 11
45.5951
 21
21.835
 31
0.0
  0
LINE
  8
0
 62
     0
 10
64.5954
 20
21.835
 30
0.0
 11
78.595
 21
21.835
 31
0.0
  0
LINE
  8
0
 62
     0
 10
78.595
 20
21.835
 30
0.0
 11
78.595
 21
7.83551
 31
0.0
  0
LINE
  8
0
 62
     0
 10
78.595
 20
7.83551
 30
0.0
 11
64.5954
 21
7.83551
 31
0.0
  0
LINE
  8
0
 62
     0
 10
64.5954
 20
7.83551
 30
0.0
 11
64.5954
 21
21.835
 31
0.0
  0
LINE
  8
0
 62
     0
 10
83.596
 20
21.835
 30
0.0
 11
97.5953
 21
21.835
 31
0.0
  0
LINE
  8
0
 62
     0
 10
97.5953
 20
21.835
 30
0.0
 11
97.5953
 21
7.83551
 31
0.0
  0
LINE
  8
0
 62
     0
 10
97.5953
 20
7.83551
 30
0.0
 11
83.596
 21
7.83551
 31
0.0
  0
LINE
  8
0
 62
     0
 10
83.596
 20
7.83551
 30
0.0
 11
83.596
 21
21.835
 31
0.0
  0
LINE
  8
0
 62
     0
 10
140.596
 20
21.835
 30
0.0
 11
154.595
 21
21.835
 31
0.0
  0
LINE
  8
0
 62
     0
 10
154.595
 20
21.835
 30
0.0
 11
154.595
 21
7.83551
 31
0.0
  0
LINE
  8
0
 62
     0
 10
154.595
 20
7.83551
 30
0.0
 11
140.596
 21
7.83551
 31
0.0
  0
LINE
  8
0
 62
     0
 10
140.596
 20
7.83551
 30
0.0
 11
140.596
 21
21.835
 31
0.0
  0
LINE
  8
0
 62
     0
 10
159.596
 20
21.835
 30
0.0
 11
173.596
 21
21.835
 31
0.0
  0
LINE
  8
0
 62
     0
 10
173.596
 20
21.835
 30
0.0
 11
173.596
 21
7.83551
 31
0.0
  0
LINE
  8
0
 62
     0
 10
173.596
 20
7.83551
 30
0.0
 11
159.596
 21
7.83551
 31
0.0
  0
LINE
  8
0
 62
     0
 10
159.596
 20
7.83551
 30
0.0
 11
159.596
 21
21.835
 31
0.0
  0
LINE
  8
0
 62
     0
 10
178.595
 20
21.835
 30
0.0
 11
192.596
 21
21.835
 31
0.0
  0
LINE
  8
0
 62
     0
 10
192.596
 20
21.835
 30
0.0
 11
192.596
 21
7.83551
 31
0.0
  0
LINE
  8
0
 62
     0
 10
192.596
 20
7.83551
 30
0.0
 11
178.595
 21
7.83551
 31
0.0
  0
LINE
  8
0
 62
     0
 10
178.595
 20
7.83551
 30
0.0
 11
178.595
 21
21.835
 31
0.0
  0
LINE
  8
0
 62
     0
 10
197.595
 20
21.835
 30
0.0
 11
211.595
 21
21.835
 31
0.0
  0
LINE
  8
0
 62
     0
 10
211.595
 20
21.835
 30
0.0
 11
211.595
 21
7.83551
 31
0.0
  0
LINE
  8
0
 62
     0
 10
211.595
 20
7.83551
 30
0.0
 11
197.595
 21
7.83551
 31
0.0
  0
LINE
  8
0
 62
     0
 10
197.595
 20
7.83551
 30
0.0
 11
197.595
 21
21.835
 31
0.0
  0
LINE
  8
0
 62
     0
 10
216.596
 20
21.835
 30
0.0
 11
230.595
 21
21.835
 31
0.0
  0
LINE
  8
0
 62
     0
 10
230.595
 20
21.835
 30
0.0
 11
230.595
 21
7.83551
 31
0.0
  0
LINE
  8
0
 62
     0
 10
230.595
 20
7.83551
 30
0.0
 11
216.596
 21
7.83551
 31
0.0
  0
LINE
  8
0
 62
     0
 10
216.596
 20
7.83551
 30
0.0
 11
216.596
 21
21.835
 31
0.0
  0
LINE
  8
0
 62
     0
 10
7.59576
 20
40.8354
 30
0.0
 11
21.5952
 21
40.8354
 31
0.0
  0
LINE
  8
0
 62
     0
 10
21.5952
 20
40.8354
 30
0.0
 11
21.5952
 21
26.8345
 31
0.0
  0
LINE
  8
0
 62
     0
 10
21.5952
 20
26.8345
 30
0.0
 11
7.59576
 21
26.8345
 31
0.0
  0
LINE
  8
0
 62
     0
 10
7.59576
 20
26.8345
 30
0.0
 11
7.59576
 21
40.8354
 31
0.0
  0
LINE
  8
0
 62
     0
 10
26.5961
 20
40.8354
 30
0.0
 11
40.5955
 21
40.8354
 31
0.0
  0
LINE
  8
0
 62
     0
 10
40.5955
 20
40.8354
 30
0.0
 11
40.5955
 21
26.8345
 31
0.0
  0
LINE
  8
0
 62
     0
 10
40.5955
 20
26.8345
 30
0.0
 11
26.5961
 21
26.8345
 31
0.0
  0
LINE
  8
0
 62
     0
 10
26.5961
 20
26.8345
 30
0.0
 11
26.5961
 21
40.8354
 31
0.0
  0
LINE
  8
0
 62
     0
 10
45.5951
 20
40.8354
 30
0.0
 11
59.5962
 21
40.8354
 31
0.0
  0
LINE
  8
0
 62
     0
 10
59.5962
 20
40.8354
 30
0.0
 11
59.5962
 21
26.8345
 31
0.0
  0
LINE
  8
0
 62
     0
 10
59.5962
 20
26.8345
 30
0.0
 11
45.5951
 21
26.8345
 31
0.0
  0
LINE
  8
0
 62
     0
 10
45.5951
 20
26.8345
 30
0.0
 11
45.5951
 21
40.8354
 31
0.0
  0
LINE
  8
0
 62
     0
 10
64.5954
 20
40.8354
 30
0.0
 11
78.595
 21
40.8354
 31
0.0
  0
LINE
  8
0
 62
     0
 10
78.595
 20
40.8354
 30
0.0
 11
78.595
 21
26.8345
 31
0.0
  0
LINE
  8
0
 62
     0
 10
78.595
 20
26.8345
 30
0.0
 11
64.5954
 21
26.8345
 31
0.0
  0
LINE
  8
0
 62
     0
 10
64.5954
 20
26.8345
 30
0.0
 11
64.5954
 21
40.8354
 31
0.0
  0
LINE
  8
0
 62
     0
 10
83.596
 20
40.8354
 30
0.0
 11
97.5953
 21
40.8354
 31
0.0
  0
LINE
  8
0
 62
     0
 10
97.5953
 20
40.8354
 30
0.0
 11
97.5953
 21
26.8345
 31
0.0
  0
LINE
  8
0
 62
     0
 10
97.5953
 20
26.8345
 30
0.0
 11
83.596
 21
26.8345
 31
0.0
  0
LINE
  8
0
 62
     0
 10
83.596
 20
26.8345
 30
0.0
 11
83.596
 21
40.8354
 31
0.0
  0
LINE
  8
0
 62
     0
 10
102.595
 20
40.8354
 30
0.0
 11
116.596
 21
40.8354
 31
0.0
  0
LINE
  8
0
 62
     0
 10
116.596
 20
40.8354
 30
0.0
 11
116.596
 21
26.8345
 31
0.0
  0
LINE
  8
0
 62
     0
 10
116.596
 20
26.8345
 30
0.0
 11
102.595
 21
26.8345
 31
0.0
  0
LINE
  8
0
 62
     0
 10
102.595
 20
26.8345
 30
0.0
 11
102.595
 21
40.8354
 31
0.0
  0
LINE
  8
0
 62
     0
 10
121.595
 20
40.8354
 30
0.0
 11
135.595
 21
40.8354
 31
0.0
  0
LINE
  8
0
 62
     0
 10
135.595
 20
40.8354
 30
0.0
 11
135.595
 21
26.8345
 31
0.0
  0
LINE
  8
0
 62
     0
 10
135.595
 20
26.8345
 30
0.0
 11
121.595
 21
26.8345
 31
0.0
  0
LINE
  8
0
 62
     0
 10
121.595
 20
26.8345
 30
0.0
 11
121.595
 21
40.8354
 31
0.0
  0
LINE
  8
0
 62
     0
 10
140.596
 20
40.8354
 30
0.0
 11
154.595
 21
40.8354
 31
0.0
  0
LINE
  8
0
 62
     0
 10
154.595
 20
40.8354
 30
0.0
 11
154.595
 21
26.8345
 31
0.0
  0
LINE
  8
0
 62
     0
 10
154.595
 20
26.8345
 30
0.0
 11
140.596
 21
26.8345
 31
0.0
  0
LINE
  8
0
 62
     0
 10
140.596
 20
26.8345
 30
0.0
 11
140.596
 21
40.8354
 31
0.0
  0
LINE
  8
0
 62
     0
 10
159.596
 20
40.8354
 30
0.0
 11
173.596
 21
40.8354
 31
0.0
  0
LINE
  8
0
 62
     0
 10
173.596
 20
40.8354
 30
0.0
 11
173.596
 21
26.8345
 31
0.0
  0
LINE
  8
0
 62
     0
 10
173.596
 20
26.8345
 30
0.0
 11
159.596
 21
26.8345
 31
0.0
  0
LINE
  8
0
 62
     0
 10
159.596
 20
26.8345
 30
0.0
 11
159.596
 21
40.8354
 31
0.0
  0
LINE
  8
0
 62
     0
 10
178.595
 20
40.8354
 30
0.0
 11
192.596
 21
40.8354
 31
0.0
  0
LINE
  8
0
 62
     0
 10
192.596
 20
40.8354
 30
0.0
 11
192.596
 21
26.8345
 31
0.0
  0
LINE
  8
0
 62
     0
 10
192.596
 20
26.8345
 30
0.0
 11
178.595
 21
26.8345
 31
0.0
  0
LINE
  8
0
 62
     0
 10
178.595
 20
26.8345
 30
0.0
 11
178.595
 21
40.8354
 31
0.0
  0
LINE
  8
0
 62
     0
 10
197.595
 20
40.8354
 30
0.0
 11
211.595
 21
40.8354
 31
0.0
  0
LINE
  8
0
 62
     0
 10
211.595
 20
40.8354
 30
0.0
 11
211.595
 21
26.8345
 31
0.0
  0
LINE
  8
0
 62
     0
 10
211.595
 20
26.8345
 30
0.0
 11
197.595
 21
26.8345
 31
0.0
  0
LINE
  8
0
 62
     0
 10
197.595
 20
26.8345
 30
0.0
 11
197.595
 21
40.8354
 31
0.0
  0
LINE
  8
0
 62
     0
 10
216.596
 20
40.8354
 30
0.0
 11
230.595
 21
40.8354
 31
0.0
  0
LINE
  8
0
 62
     0
 10
230.595
 20
40.8354
 30
0.0
 11
230.595
 21
26.8345
 31
0.0
  0
LINE
  8
0
 62
     0
 10
230.595
 20
26.8345
 30
0.0
 11
216.596
 21
26.8345
 31
0.0
  0
LINE
  8
0
 62
     0
 10
216.596
 20
26.8345
 30
0.0
 11
216.596
 21
40.8354
 31
0.0
  0
LINE
  8
0
 62
     0
 10
7.59576
 20
59.8343
 30
0.0
 11
21.5952
 21
59.8343
 31
0.0
  0
LINE
  8
0
 62
     0
 10
21.5952
 20
59.8343
 30
0.0
 11
21.5952
 21
45.835
 31
0.0
  0
LINE
  8
0
 62
     0
 10
21.5952
 20
45.835
 30
0.0
 11
7.59576
 21
45.835
 31
0.0
  0
LINE
  8
0
 62
     0
 10
7.59576
 20
45.835
 30
0.0
 11
7.59576
 21
59.8343
 31
0.0
  0
LINE
  8
0
 62
     0
 10
26.5961
 20
59.8343
 30
0.0
 11
40.5955
 21
59.8343
 31
0.0
  0
LINE
  8
0
 62
     0
 10
40.5955
 20
59.8343
 30
0.0
 11
40.5955
 21
45.835
 31
0.0
  0
LINE
  8
0
 62
     0
 10
40.5955
 20
45.835
 30
0.0
 11
26.5961
 21
45.835
 31
0.0
  0
LINE
  8
0
 62
     0
 10
26.5961
 20
45.835
 30
0.0
 11
26.5961
 21
59.8343
 31
0.0
  0
LINE
  8
0
 62
     0
 10
45.5951
 20
59.8343
 30
0.0
 11
59.5962
 21
59.8343
 31
0.0
  0
LINE
  8
0
 62
     0
 10
59.5962
 20
59.8343
 30
0.0
 11
59.5962
 21
45.835
 31
0.0
  0
LINE
  8
0
 62
     0
 10
59.5962
 20
45.835
 30
0.0
 11
45.5951
 21
45.835
 31
0.0
  0
LINE
  8
0
 62
     0
 10
45.5951
 20
45.835
 30
0.0
 11
45.5951
 21
59.8343
 31
0.0
  0
LINE
  8
0
 62
     0
 10
64.5954
 20
59.8343
 30
0.0
 11
78.595
 21
59.8343
 31
0.0
  0
LINE
  8
0
 62
     0
 10
78.595
 20
59.8343
 30
0.0
 11
78.595
 21
45.835
 31
0.0
  0
LINE
  8
0
 62
     0
 10
78.595
 20
45.835
 30
0.0
 11
64.5954
 21
45.835
 31
0.0
  0
LINE
  8
0
 62
     0
 10
64.5954
 20
45.835
 30
0.0
 11
64.5954
 21
59.8343
 31
0.0
  0
LINE
  8
0
 62
     0
 10
83.596
 20
59.8343
 30
0.0
 11
97.5953
 21
59.8343
 31
0.0
  0
LINE
  8
0
 62
     0
 10
97.5953
 20
59.8343
 30
0.0
 11
97.5953
 21
45.835
 31
0.0
  0
LINE
  8
0
 62
     0
 10
97.5953
 20
45.835
 30
0.0
 11
83.596
 21
45.835
 31
0.0
  0
LINE
  8
0
 62
     0
 10
83.596
 20
45.835
 30
0.0
 11
83.596
 21
59.8343
 31
0.0
  0
LINE
  8
0
 62
     0
 10
102.595
 20
59.8343
 30
0.0
 11
116.596
 21
59.8343
 31
0.0
  0
LINE
  8
0
 62
     0
 10
116.596
 20
59.8343
 30
0.0
 11
116.596
 21
45.835
 31
0.0
  0
LINE
  8
0
 62
     0
 10
116.596
 20
45.835
 30
0.0
 11
102.595
 21
45.835
 31
0.0
  0
LINE
  8
0
 62
     0
 10
102.595
 20
45.835
 30
0.0
 11
102.595
 21
59.8343
 31
0.0
  0
LINE
  8
0
 62
     0
 10
121.595
 20
59.8343
 30
0.0
 11
135.595
 21
59.8343
 31
0.0
  0
LINE
  8
0
 62
     0
 10
135.595
 20
59.8343
 30
0.0
 11
135.595
 21
45.835
 31
0.0
  0
LINE
  8
0
 62
     0
 10
135.595
 20
45.835
 30
0.0
 11
121.595
 21
45.835
 31
0.0
  0
LINE
  8
0
 62
     0
 10
121.595
 20
45.835
 30
0.0
 11
121.595
 21
59.8343
 31
0.0
  0
LINE
  8
0
 62
     0
 10
140.596
 20
59.8343
 30
0.0
 11
154.595
 21
59.8343
 31
0.0
  0
LINE
  8
0
 62
     0
 10
154.595
 20
59.8343
 30
0.0
 11
154.595
 21
45.835
 31
0.0
  0
LINE
  8
0
 62
     0
 10
154.595
 20
45.835
 30
0.0
 11
140.596
 21
45.835
 31
0.0
  0
LINE
  8
0
 62
     0
 10
140.596
 20
45.835
 30
0.0
 11
140.596
 21
59.8343
 31
0.0
  0
LINE
  8
0
 62
     0
 10
159.596
 20
59.8343
 30
0.0
 11
173.596
 21
59.8343
 31
0.0
  0
LINE
  8
0
 62
     0
 10
173.596
 20
59.8343
 30
0.0
 11
173.596
 21
45.835
 31
0.0
  0
LINE
  8
0
 62
     0
 10
173.596
 20
45.835
 30
0.0
 11
159.596
 21
45.835
 31
0.0
  0
LINE
  8
0
 62
     0
 10
159.596
 20
45.835
 30
0.0
 11
159.596
 21
59.8343
 31
0.0
  0
LINE
  8
0
 62
     0
 10
178.595
 20
59.8343
 30
0.0
 11
192.596
 21
59.8343
 31
0.0
  0
LINE
  8
0
 62
     0
 10
192.596
 20
59.8343
 30
0.0
 11
192.596
 21
45.835
 31
0.0
  0
LINE
  8
0
 62
     0
 10
192.596
 20
45.835
 30
0.0
 11
178.595
 21
45.835
 31
0.0
  0
LINE
  8
0
 62
     0
 10
178.595
 20
45.835
 30
0.0
 11
178.595
 21
59.8343
 31
0.0
  0
LINE
  8
0
 62
     0
 10
197.595
 20
59.8343
 30
0.0
 11
211.595
 21
59.8343
 31
0.0
  0
LINE
  8
0
 62
     0
 10
211.595
 20
59.8343
 30
0.0
 11
211.595
 21
45.835
 31
0.0
  0
LINE
  8
0
 62
     0
 10
211.595
 20
45.835
 30
0.0
 11
197.595
 21
45.835
 31
0.0
  0
LINE
  8
0
 62
     0
 10
197.595
 20
45.835
 30
0.0
 11
197.595
 21
59.8343
 31
0.0
  0
LINE
  8
0
 62
     0
 10
216.596
 20
59.8343
 30
0.0
 11
230.595
 21
59.8343
 31
0.0
  0
LINE
  8
0
 62
     0
 10
230.595
 20
59.8343
 30
0.0
 11
230.595
 21
45.835
 31
0.0
  0
LINE
  8
0
 62
     0
 10
230.595
 20
45.835
 30
0.0
 11
216.596
 21
45.835
 31
0.0
  0
LINE
  8
0
 62
     0
 10
216.596
 20
45.835
 30
0.0
 11
216.596
 21
59.8343
 31
0.0
  0
LINE
  8
0
 62
     0
 10
7.59576
 20
78.8349
 30
0.0
 11
21.5952
 21
78.8349
 31
0.0
  0
LINE
  8
0
 62
     0
 10
21.5952
 20
78.8349
 30
0.0
 11
21.5952
 21
64.8353
 31
0.0
  0
LINE
  8
0
 62
     0
 10
21.5952
 20
64.8353
 30
0.0
 11
7.59576
 21
64.8353
 31
0.0
  0
LINE
  8
0
 62
     0
 10
7.59576
 20
64.8353
 30
0.0
 11
7.59576
 21
78.8349
 31
0.0
  0
LINE
  8
0
 62
     0
 10
26.5961
 20
78.8349
 30
0.0
 11
40.5955
 21
78.8349
 31
0.0
  0
LINE
  8
0
 62
     0
 10
40.5955
 20
78.8349
 30
0.0
 11
40.5955
 21
64.8353
 31
0.0
  0
LINE
  8
0
 62
     0
 10
40.5955
 20
64.8353
 30
0.0
 11
26.5961
 21
64.8353
 31
0.0
  0
LINE
  8
0
 62
     0
 10
26.5961
 20
64.8353
 30
0.0
 11
26.5961
 21
78.8349
 31
0.0
  0
LINE
  8
0
 62
     0
 10
45.5951
 20
78.8349
 30
0.0
 11
59.5962
 21
78.8349
 31
0.0
  0
LINE
  8
0
 62
     0
 10
59.5962
 20
78.8349
 30
0.0
 11
59.5962
 21
64.8353
 31
0.0
  0
LINE
  8
0
 62
     0
 10
59.5962
 20
64.8353
 30
0.0
 11
45.5951
 21
64.8353
 31
0.0
  0
LINE
  8
0
 62
     0
 10
45.5951
 20
64.8353
 30
0.0
 11
45.5951
 21
78.8349
 31
0.0
  0
LINE
  8
0
 62
     0
 10
64.5954
 20
78.8349
 30
0.0
 11
78.595
 21
78.8349
 31
0.0
  0
LINE
  8
0
 62
     0
 10
78.595
 20
78.8349
 30
0.0
 11
78.595
 21
64.8353
 31
0.0
  0
LINE
  8
0
 62
     0
 10
78.595
 20
64.8353
 30
0.0
 11
64.5954
 21
64.8353
 31
0.0
  0
LINE
  8
0
 62
     0
 10
64.5954
 20
64.8353
 30
0.0
 11
64.5954
 21
78.8349
 31
0.0
  0
LINE
  8
0
 62
     0
 10
83.596
 20
78.8349
 30
0.0
 11
97.5953
 21
78.8349
 31
0.0
  0
LINE
  8
0
 62
     0
 10
97.5953
 20
78.8349
 30
0.0
 11
97.5953
 21
64.8353
 31
0.0
  0
LINE
  8
0
 62
     0
 10
97.5953
 20
64.8353
 30
0.0
 11
83.596
 21
64.8353
 31
0.0
  0
LINE
  8
0
 62
     0
 10
83.596
 20
64.8353
 30
0.0
 11
83.596
 21
78.8349
 31
0.0
  0
LINE
  8
0
 62
     0
 10
102.595
 20
78.8349
 30
0.0
 11
116.596
 21
78.8349
 31
0.0
  0
LINE
  8
0
 62
     0
 10
116.596
 20
78.8349
 30
0.0
 11
116.596
 21
64.8353
 31
0.0
  0
LINE
  8
0
 62
     0
 10
116.596
 20
64.8353
 30
0.0
 11
102.595
 21
64.8353
 31
0.0
  0
LINE
  8
0
 62
     0
 10
102.595
 20
64.8353
 30
0.0
 11
102.595
 21
78.8349
 31
0.0
  0
LINE
  8
0
 62
     0
 10
121.595
 20
78.8349
 30
0.0
 11
135.595
 21
78.8349
 31
0.0
  0
LINE
  8
0
 62
     0
 10
135.595
 20
78.8349
 30
0.0
 11
135.595
 21
64.8353
 31
0.0
  0
LINE
  8
0
 62
     0
 10
135.595
 20
64.8353
 30
0.0
 11
121.595
 21
64.8353
 31
0.0
  0
LINE
  8
0
 62
     0
 10
121.595
 20
64.8353
 30
0.0
 11
121.595
 21
78.8349
 31
0.0
  0
LINE
  8
0
 62
     0
 10
140.596
 20
78.8349
 30
0.0
 11
154.595
 21
78.8349
 31
0.0
  0
LINE
  8
0
 62
     0
 10
154.595
 20
78.8349
 30
0.0
 11
154.595
 21
64.8353
 31
0.0
  0
LINE
  8
0
 62
     0
 10
154.595
 20
64.8353
 30
0.0
 11
140.596
 21
64.8353
 31
0.0
  0
LINE
  8
0
 62
     0
 10
140.596
 20
64.8353
 30
0.0
 11
140.596
 21
78.8349
 31
0.0
  0
LINE
  8
0
 62
     0
 10
159.596
 20
78.8349
 30
0.0
 11
173.596
 21
78.8349
 31
0.0
  0
LINE
  8
0
 62
     0
 10
173.596
 20
78.8349
 30
0.0
 11
173.596
 21
64.8353
 31
0.0
  0
LINE
  8
0
 62
     0
 10
173.596
 20
64.8353
 30
0.0
 11
159.596
 21
64.8353
 31
0.0
  0
LINE
  8
0
 62
     0
 10
159.596
 20
64.8353
 30
0.0
 11
159.596
 21
78.8349
 31
0.0
  0
LINE
  8
0
 62
     0
 10
178.595
 20
78.8349
 30
0.0
 11
192.596
 21
78.8349
 31
0.0
  0
LINE
  8
0
 62
     0
 10
192.596
 20
78.8349
 30
0.0
 11
192.596
 21
64.8353
 31
0.0
  0
LINE
  8
0
 62
     0
 10
192.596
 20
64.8353
 30
0.0
 11
178.595
 21
64.8353
 31
0.0
  0
LINE
  8
0
 62
     0
 10
178.595
 20
64.8353
 30
0.0
 11
178.595
 21
78.8349
 31
0.0
  0
LINE
  8
0
 62
     0
 10
197.595
 20
78.8349
 30
0.0
 11
211.595
 21
78.8349
 31
0.0
  0
LINE
  8
0
 62
     0
 10
211.595
 20
78.8349
 30
0.0
 11
211.595
 21
64.8353
 31
0.0
  0
LINE
  8
0
 62
     0
 10
211.595
 20
64.8353
 30
0.0
 11
197.595
 21
64.8353
 31
0.0
  0
LINE
  8
0
 62
     0
 10
197.595
 20
64.8353
 30
0.0
 11
197.595
 21
78.8349
 31
0.0
  0
LINE
  8
0
 62
     0
 10
216.596
 20
78.8349
 30
0.0
 11
230.595
 21
78.8349
 31
0.0
  0
LINE
  8
0
 62
     0
 10
230.595
 20
78.8349
 30
0.0
 11
230.595
 21
64.8353
 31
0.0
  0
LINE
  8
0
 62
     0
 10
230.595
 20
64.8353
 30
0.0
 11
216.596
 21
64.8353
 31
0.0
  0
LINE
  8
0
 62
     0
 10
216.596
 20
64.8353
 30
0.0
 11
216.596
 21
78.8349
 31
0.0
  0
LINE
  8
0
 62
     0
 10
118.631
 20
85.2622
 30
0.0
 11
118.214
 21
85.0484
 31
0.0
  0
LINE
  8
0
 62
     0
 10
118.214
 20
85.0484
 30
0.0
 11
117.881
 21
84.7178
 31
0.0
  0
LINE
  8
0
 62
     0
 10
117.881
 20
84.7178
 30
0.0
 11
117.668
 21
84.2987
 31
0.0
  0
LINE
  8
0
 62
     0
 10
117.668
 20
84.2987
 30
0.0
 11
117.595
 21
83.8359
 31
0.0
  0
LINE
  8
0
 62
     0
 10
117.595
 20
83.8359
 30
0.0
 11
117.668
 21
83.3727
 31
0.0
  0
LINE
  8
0
 62
     0
 10
117.668
 20
83.3727
 30
0.0
 11
117.881
 21
82.9539
 31
0.0
  0
LINE
  8
0
 62
     0
 10
117.881
 20
82.9539
 30
0.0
 11
118.214
 21
82.6216
 31
0.0
  0
LINE
  8
0
 62
     0
 10
118.214
 20
82.6216
 30
0.0
 11
118.631
 21
82.4096
 31
0.0
  0
LINE
  8
0
 62
     0
 10
118.631
 20
82.4096
 30
0.0
 11
119.096
 21
82.3352
 31
0.0
  0
LINE
  8
0
 62
     0
 10
119.096
 20
82.3352
 30
0.0
 11
119.56
 21
82.4096
 31
0.0
  0
LINE
  8
0
 62
     0
 10
119.56
 20
82.4096
 30
0.0
 11
119.978
 21
82.6216
 31
0.0
  0
LINE
  8
0
 62
     0
 10
119.978
 20
82.6216
 30
0.0
 11
120.31
 21
82.9539
 31
0.0
  0
LINE
  8
0
 62
     0
 10
120.31
 20
82.9539
 30
0.0
 11
120.522
 21
83.3727
 31
0.0
  0
LINE
  8
0
 62
     0
 10
120.522
 20
83.3727
 30
0.0
 11
120.595
 21
83.8359
 31
0.0
  0
LINE
  8
0
 62
     0
 10
120.595
 20
83.8359
 30
0.0
 11
120.522
 21
84.2987
 31
0.0
  0
LINE
  8
0
 62
     0
 10
120.522
 20
84.2987
 30
0.0
 11
120.31
 21
84.7178
 31
0.0
  0
LINE
  8
0
 62
     0
 10
120.31
 20
84.7178
 30
0.0
 11
119.978
 21
85.0484
 31
0.0
  0
LINE
  8
0
 62
     0
 10
119.978
 20
85.0484
 30
0.0
 11
119.56
 21
85.2622
 31
0.0
  0
LINE
  8
0
 62
     0
 10
119.56
 20
85.2622
 30
0.0
 11
119.096
 21
85.3352
 31
0.0
  0
LINE
  8
0
 62
     0
 10
119.096
 20
85.3352
 30
0.0
 11
118.631
 21
85.2622
 31
0.0
  0
LINE
  8
0
 62
     0
 10
235.132
 20
85.2622
 30
0.0
 11
234.714
 21
85.0484
 31
0.0
  0
LINE
  8
0
 62
     0
 10
234.714
 20
85.0484
 30
0.0
 11
234.382
 21
84.7178
 31
0.0
  0
LINE
  8
0
 62
     0
 10
234.382
 20
84.7178
 30
0.0
 11
234.17
 21
84.2987
 31
0.0
  0
LINE
  8
0
 62
     0
 10
234.17
 20
84.2987
 30
0.0
 11
234.096
 21
83.8359
 31
0.0
  0
LINE
  8
0
 62
     0
 10
234.096
 20
83.8359
 30
0.0
 11
234.17
 21
83.3727
 31
0.0
  0
LINE
  8
0
 62
     0
 10
234.17
 20
83.3727
 30
0.0
 11
234.382
 21
82.9539
 31
0.0
  0
LINE
  8
0
 62
     0
 10
234.382
 20
82.9539
 30
0.0
 11
234.714
 21
82.6216
 31
0.0
  0
LINE
  8
0
 62
     0
 10
234.714
 20
82.6216
 30
0.0
 11
235.132
 21
82.4096
 31
0.0
  0
LINE
  8
0
 62
     0
 10
235.132
 20
82.4096
 30
0.0
 11
235.596
 21
82.3352
 31
0.0
  0
LINE
  8
0
 62
     0
 10
235.596
 20
82.3352
 30
0.0
 11
236.059
 21
82.4096
 31
0.0
  0
LINE
  8
0
 62
     0
 10
236.059
 20
82.4096
 30
0.0
 11
236.477
 21
82.6216
 31
0.0
  0
LINE
  8
0
 62
     0
 10
236.477
 20
82.6216
 30
0.0
 11
236.809
 21
82.9539
 31
0.0
  0
LINE
  8
0
 62
     0
 10
236.809
 20
82.9539
 30
0.0
 11
237.023
 21
83.3727
 31
0.0
  0
LINE
  8
0
 62
     0
 10
237.023
 20
83.3727
 30
0.0
 11
237.097
 21
83.8359
 31
0.0
  0
LINE
  8
0
 62
     0
 10
237.097
 20
83.8359
 30
0.0
 11
237.023
 21
84.2987
 31
0.0
  0
LINE
  8
0
 62
     0
 10
237.023
 20
84.2987
 30
0.0
 11
236.809
 21
84.7178
 31
0.0
  0
LINE
  8
0
 62
     0
 10
236.809
 20
84.7178
 30
0.0
 11
236.477
 21
85.0484
 31
0.0
  0
LINE
  8
0
 62
     0
 10
236.477
 20
85.0484
 30
0.0
 11
236.059
 21
85.2622
 31
0.0
  0
LINE
  8
0
 62
     0
 10
236.059
 20
85.2622
 30
0.0
 11
235.596
 21
85.3352
 31
0.0
  0
LINE
  8
0
 62
     0
 10
235.596
 20
85.3352
 30
0.0
 11
235.132
 21
85.2622
 31
0.0
  0
LINE
  8
0
 62
     0
 10
2.13183
 20
85.2622
 30
0.0
 11
1.7129
 21
85.0484
 31
0.0
  0
LINE
  8
0
 62
     0
 10
1.7129
 20
85.0484
 30
0.0
 11
1.38217
 21
84.7178
 31
0.0
  0
LINE
  8
0
 62
     0
 10
1.38217
 20
84.7178
 30
0.0
 11
1.16858
 21
84.2987
 31
0.0
  0
LINE
  8
0
 62
     0
 10
1.16858
 20
84.2987
 30
0.0
 11
1.09416
 21
83.8359
 31
0.0
  0
LINE
  8
0
 62
     0
 10
1.09416
 20
83.8359
 30
0.0
 11
1.16858
 21
83.3727
 31
0.0
  0
LINE
  8
0
 62
     0
 10
1.16858
 20
83.3727
 30
0.0
 11
1.38217
 21
82.9539
 31
0.0
  0
LINE
  8
0
 62
     0
 10
1.38217
 20
82.9539
 30
0.0
 11
1.7129
 21
82.6216
 31
0.0
  0
LINE
  8
0
 62
     0
 10
1.7129
 20
82.6216
 30
0.0
 11
2.13183
 21
82.4096
 31
0.0
  0
LINE
  8
0
 62
     0
 10
2.13183
 20
82.4096
 30
0.0
 11
2.59485
 21
82.3352
 31
0.0
  0
LINE
  8
0
 62
     0
 10
2.59485
 20
82.3352
 30
0.0
 11
3.05787
 21
82.4096
 31
0.0
  0
LINE
  8
0
 62
     0
 10
3.05787
 20
82.4096
 30
0.0
 11
3.47679
 21
82.6216
 31
0.0
  0
LINE
  8
0
 62
     0
 10
3.47679
 20
82.6216
 30
0.0
 11
3.80891
 21
82.9539
 31
0.0
  0
LINE
  8
0
 62
     0
 10
3.80891
 20
82.9539
 30
0.0
 11
4.0211
 21
83.3727
 31
0.0
  0
LINE
  8
0
 62
     0
 10
4.0211
 20
83.3727
 30
0.0
 11
4.09554
 21
83.8359
 31
0.0
  0
LINE
  8
0
 62
     0
 10
4.09554
 20
83.8359
 30
0.0
 11
4.0211
 21
84.2987
 31
0.0
  0
LINE
  8
0
 62
     0
 10
4.0211
 20
84.2987
 30
0.0
 11
3.80891
 21
84.7178
 31
0.0
  0
LINE
  8
0
 62
     0
 10
3.80891
 20
84.7178
 30
0.0
 11
3.47679
 21
85.0484
 31
0.0
  0
LINE
  8
0
 62
     0
 10
3.47679
 20
85.0484
 30
0.0
 11
3.05787
 21
85.2622
 31
0.0
  0
LINE
  8
0
 62
     0
 10
3.05787
 20
85.2622
 30
0.0
 11
2.59485
 21
85.3352
 31
0.0
  0
LINE
  8
0
 62
     0
 10
2.59485
 20
85.3352
 30
0.0
 11
2.13183
 21
85.2622
 31
0.0
  0
ENDSEC
  0
EOF
