%TF.GenerationSoftware,KiCad,Pcbnew,(6.0.11)*%
%TF.CreationDate,2023-04-14T22:13:07-06:00*%
%TF.ProjectId,JL Planck,4a4c2050-6c61-46e6-936b-2e6b69636164,rev?*%
%TF.SameCoordinates,Original*%
%TF.FileFunction,Copper,L1,Top*%
%TF.FilePolarity,Positive*%
%FSLAX46Y46*%
G04 Gerber Fmt 4.6, Leading zero omitted, Abs format (unit mm)*
G04 Created by KiCad (PCBNEW (6.0.11)) date 2023-04-14 22:13:07*
%MOMM*%
%LPD*%
G01*
G04 APERTURE LIST*
%TA.AperFunction,ComponentPad*%
%ADD10C,2.286000*%
%TD*%
%TA.AperFunction,ComponentPad*%
%ADD11O,1.700000X1.700000*%
%TD*%
%TA.AperFunction,ComponentPad*%
%ADD12R,1.700000X1.700000*%
%TD*%
%TA.AperFunction,ViaPad*%
%ADD13C,0.457200*%
%TD*%
%TA.AperFunction,ViaPad*%
%ADD14C,0.635000*%
%TD*%
%TA.AperFunction,Conductor*%
%ADD15C,0.304800*%
%TD*%
%TA.AperFunction,Conductor*%
%ADD16C,0.254000*%
%TD*%
%TA.AperFunction,Conductor*%
%ADD17C,0.508000*%
%TD*%
%TA.AperFunction,Conductor*%
%ADD18C,0.381000*%
%TD*%
G04 APERTURE END LIST*
D10*
%TO.P,SW26,2,2*%
%TO.N,Net-(D26-Pad2)*%
X84466681Y-96909249D03*
%TO.P,SW26,1,1*%
%TO.N,COL1*%
X90816681Y-94369249D03*
%TD*%
%TO.P,SW25,2,2*%
%TO.N,Net-(D25-Pad2)*%
X65466681Y-96909249D03*
%TO.P,SW25,1,1*%
%TO.N,COL0*%
X71816681Y-94369249D03*
%TD*%
%TO.P,SW18,2,2*%
%TO.N,Net-(D18-Pad2)*%
X160466681Y-77909249D03*
%TO.P,SW18,1,1*%
%TO.N,COL5*%
X166816681Y-75369249D03*
%TD*%
%TO.P,SW44,2,2*%
%TO.N,Net-(D44-Pad2)*%
X217466681Y-115909249D03*
%TO.P,SW44,1,1*%
%TO.N,COL8*%
X223816681Y-113369249D03*
%TD*%
%TO.P,SW14,1,1*%
%TO.N,COL1*%
X90816681Y-75369249D03*
%TO.P,SW14,2,2*%
%TO.N,Net-(D14-Pad2)*%
X84466681Y-77909249D03*
%TD*%
%TO.P,SW29,2,2*%
%TO.N,Net-(D29-Pad2)*%
X141466681Y-96909249D03*
%TO.P,SW29,1,1*%
%TO.N,COL4*%
X147816681Y-94369249D03*
%TD*%
%TO.P,SW20,2,2*%
%TO.N,Net-(D20-Pad2)*%
X198466681Y-77909249D03*
%TO.P,SW20,1,1*%
%TO.N,COL7*%
X204816681Y-75369249D03*
%TD*%
%TO.P,SW23,2,2*%
%TO.N,Net-(D23-Pad2)*%
X255466681Y-77909249D03*
%TO.P,SW23,1,1*%
%TO.N,COL10*%
X261816681Y-75369249D03*
%TD*%
%TO.P,SW16,2,2*%
%TO.N,Net-(D16-Pad2)*%
X122466681Y-77909249D03*
%TO.P,SW16,1,1*%
%TO.N,COL3*%
X128816681Y-75369249D03*
%TD*%
%TO.P,SW30,2,2*%
%TO.N,Net-(D30-Pad2)*%
X160466681Y-96909249D03*
%TO.P,SW30,1,1*%
%TO.N,COL5*%
X166816681Y-94369249D03*
%TD*%
%TO.P,SW36,2,2*%
%TO.N,Net-(D36-Pad2)*%
X274466681Y-96909249D03*
%TO.P,SW36,1,1*%
%TO.N,COL11*%
X280816681Y-94369249D03*
%TD*%
%TO.P,SW42,2,2*%
%TO.N,Net-(D42-Pad2)*%
X170241681Y-115909249D03*
%TO.P,SW42,1,1*%
%TO.N,COL6*%
X176591681Y-113369249D03*
%TD*%
%TO.P,SW8,2,2*%
%TO.N,Net-(D8-Pad2)*%
X198466681Y-58909249D03*
%TO.P,SW8,1,1*%
%TO.N,COL7*%
X204816681Y-56369249D03*
%TD*%
%TO.P,SW37,2,2*%
%TO.N,Net-(D37-Pad2)*%
X65466681Y-115909249D03*
%TO.P,SW37,1,1*%
%TO.N,COL0*%
X71816681Y-113369249D03*
%TD*%
%TO.P,SW39,2,2*%
%TO.N,Net-(D39-Pad2)*%
X103466681Y-115909249D03*
%TO.P,SW39,1,1*%
%TO.N,COL2*%
X109816681Y-113369249D03*
%TD*%
%TO.P,SW34,2,2*%
%TO.N,Net-(D34-Pad2)*%
X236466681Y-96909249D03*
%TO.P,SW34,1,1*%
%TO.N,COL9*%
X242816681Y-94369249D03*
%TD*%
%TO.P,SW31,2,2*%
%TO.N,Net-(D31-Pad2)*%
X179466681Y-96909249D03*
%TO.P,SW31,1,1*%
%TO.N,COL6*%
X185816681Y-94369249D03*
%TD*%
%TO.P,SW40,2,2*%
%TO.N,Net-(D40-Pad2)*%
X122466681Y-115909249D03*
%TO.P,SW40,1,1*%
%TO.N,COL3*%
X128816681Y-113369249D03*
%TD*%
%TO.P,SW35,2,2*%
%TO.N,Net-(D35-Pad2)*%
X255466681Y-96909249D03*
%TO.P,SW35,1,1*%
%TO.N,COL10*%
X261816681Y-94369249D03*
%TD*%
%TO.P,SW38,2,2*%
%TO.N,Net-(D38-Pad2)*%
X84466681Y-115909249D03*
%TO.P,SW38,1,1*%
%TO.N,COL1*%
X90816681Y-113369249D03*
%TD*%
%TO.P,SW10,2,2*%
%TO.N,Net-(D10-Pad2)*%
X236466681Y-58909249D03*
%TO.P,SW10,1,1*%
%TO.N,COL9*%
X242816681Y-56369249D03*
%TD*%
%TO.P,SW12,2,2*%
%TO.N,Net-(D12-Pad2)*%
X274466681Y-58909249D03*
%TO.P,SW12,1,1*%
%TO.N,COL11*%
X280816681Y-56369249D03*
%TD*%
%TO.P,SW22,2,2*%
%TO.N,Net-(D22-Pad2)*%
X236466681Y-77909249D03*
%TO.P,SW22,1,1*%
%TO.N,COL9*%
X242816681Y-75369249D03*
%TD*%
%TO.P,SW6,2,2*%
%TO.N,Net-(D6-Pad2)*%
X160466681Y-58909249D03*
%TO.P,SW6,1,1*%
%TO.N,COL5*%
X166816681Y-56369249D03*
%TD*%
%TO.P,SW41,2,2*%
%TO.N,Net-(D41-Pad2)*%
X141466681Y-115909249D03*
%TO.P,SW41,1,1*%
%TO.N,COL4*%
X147816681Y-113369249D03*
%TD*%
%TO.P,SW15,2,2*%
%TO.N,Net-(D15-Pad2)*%
X103466681Y-77909249D03*
%TO.P,SW15,1,1*%
%TO.N,COL2*%
X109816681Y-75369249D03*
%TD*%
%TO.P,SW1,2,2*%
%TO.N,Net-(D1-Pad2)*%
X65466681Y-58909249D03*
%TO.P,SW1,1,1*%
%TO.N,COL0*%
X71816681Y-56369249D03*
%TD*%
%TO.P,SW13,2,2*%
%TO.N,Net-(D13-Pad2)*%
X65466681Y-77909249D03*
%TO.P,SW13,1,1*%
%TO.N,COL0*%
X71816681Y-75369249D03*
%TD*%
%TO.P,SW24,2,2*%
%TO.N,Net-(D24-Pad2)*%
X274466681Y-77909249D03*
%TO.P,SW24,1,1*%
%TO.N,COL11*%
X280816681Y-75369249D03*
%TD*%
%TO.P,SW17,2,2*%
%TO.N,Net-(D17-Pad2)*%
X141466681Y-77909249D03*
%TO.P,SW17,1,1*%
%TO.N,COL4*%
X147816681Y-75369249D03*
%TD*%
%TO.P,SW32,2,2*%
%TO.N,Net-(D32-Pad2)*%
X198466681Y-96909249D03*
%TO.P,SW32,1,1*%
%TO.N,COL7*%
X204816681Y-94369249D03*
%TD*%
%TO.P,SW7,2,2*%
%TO.N,Net-(D7-Pad2)*%
X179466681Y-58909249D03*
%TO.P,SW7,1,1*%
%TO.N,COL6*%
X185816681Y-56369249D03*
%TD*%
%TO.P,SW3,2,2*%
%TO.N,Net-(D3-Pad2)*%
X103466681Y-58909249D03*
%TO.P,SW3,1,1*%
%TO.N,COL2*%
X109816681Y-56369249D03*
%TD*%
%TO.P,SW27,2,2*%
%TO.N,Net-(D27-Pad2)*%
X103466681Y-96909249D03*
%TO.P,SW27,1,1*%
%TO.N,COL2*%
X109816681Y-94369249D03*
%TD*%
%TO.P,SW21,2,2*%
%TO.N,Net-(D21-Pad2)*%
X217466681Y-77909249D03*
%TO.P,SW21,1,1*%
%TO.N,COL8*%
X223816681Y-75369249D03*
%TD*%
%TO.P,SW5,2,2*%
%TO.N,Net-(D5-Pad2)*%
X141466681Y-58909249D03*
%TO.P,SW5,1,1*%
%TO.N,COL4*%
X147816681Y-56369249D03*
%TD*%
%TO.P,SW28,2,2*%
%TO.N,Net-(D28-Pad2)*%
X122466681Y-96909249D03*
%TO.P,SW28,1,1*%
%TO.N,COL3*%
X128816681Y-94369249D03*
%TD*%
%TO.P,SW19,2,2*%
%TO.N,Net-(D19-Pad2)*%
X179466681Y-77909249D03*
%TO.P,SW19,1,1*%
%TO.N,COL6*%
X185816681Y-75369249D03*
%TD*%
%TO.P,SW43,2,2*%
%TO.N,Net-(D43-Pad2)*%
X198466681Y-115909249D03*
%TO.P,SW43,1,1*%
%TO.N,COL7*%
X204816681Y-113369249D03*
%TD*%
%TO.P,SW46,2,2*%
%TO.N,Net-(D46-Pad2)*%
X255466681Y-115909249D03*
%TO.P,SW46,1,1*%
%TO.N,COL10*%
X261816681Y-113369249D03*
%TD*%
%TO.P,SW47,2,2*%
%TO.N,Net-(D47-Pad2)*%
X274466681Y-115909249D03*
%TO.P,SW47,1,1*%
%TO.N,COL11*%
X280816681Y-113369249D03*
%TD*%
%TO.P,SW33,2,2*%
%TO.N,Net-(D33-Pad2)*%
X217466681Y-96909249D03*
%TO.P,SW33,1,1*%
%TO.N,COL8*%
X223816681Y-94369249D03*
%TD*%
%TO.P,SW45,2,2*%
%TO.N,Net-(D45-Pad2)*%
X236466681Y-115909249D03*
%TO.P,SW45,1,1*%
%TO.N,COL9*%
X242816681Y-113369249D03*
%TD*%
%TO.P,SW9,2,2*%
%TO.N,Net-(D9-Pad2)*%
X217466681Y-58909249D03*
%TO.P,SW9,1,1*%
%TO.N,COL8*%
X223816681Y-56369249D03*
%TD*%
%TO.P,SW4,2,2*%
%TO.N,Net-(D4-Pad2)*%
X122466681Y-58909249D03*
%TO.P,SW4,1,1*%
%TO.N,COL3*%
X128816681Y-56369249D03*
%TD*%
%TO.P,SW2,2,2*%
%TO.N,Net-(D2-Pad2)*%
X84466681Y-58909249D03*
%TO.P,SW2,1,1*%
%TO.N,COL1*%
X90816681Y-56369249D03*
%TD*%
%TO.P,SW11,2,2*%
%TO.N,Net-(D11-Pad2)*%
X255466681Y-58909249D03*
%TO.P,SW11,1,1*%
%TO.N,COL10*%
X261816681Y-56369249D03*
%TD*%
D11*
%TO.P,U1,43,SWDIO*%
%TO.N,unconnected-(U1-Pad43)*%
X106638681Y-82912249D03*
D12*
%TO.P,U1,42,GND*%
%TO.N,unconnected-(U1-Pad42)*%
X106638681Y-80372249D03*
D11*
%TO.P,U1,41,SWCLK*%
%TO.N,unconnected-(U1-Pad41)*%
X106638681Y-77832249D03*
%TO.P,U1,40,VBUS*%
%TO.N,unconnected-(U1-Pad40)*%
X58608681Y-89262249D03*
%TO.P,U1,39,VSYS*%
%TO.N,unconnected-(U1-Pad39)*%
X61148681Y-89262249D03*
D12*
%TO.P,U1,38,GND*%
%TO.N,unconnected-(U1-Pad38)*%
X63688681Y-89262249D03*
D11*
%TO.P,U1,37,3V3_EN*%
%TO.N,unconnected-(U1-Pad37)*%
X66228681Y-89262249D03*
%TO.P,U1,36,3V3*%
%TO.N,unconnected-(U1-Pad36)*%
X68768681Y-89262249D03*
%TO.P,U1,35,ADC_VREF*%
%TO.N,unconnected-(U1-Pad35)*%
X71308681Y-89262249D03*
%TO.P,U1,34,GPIO28_ADC2*%
%TO.N,ROW2*%
X73848681Y-89262249D03*
D12*
%TO.P,U1,33,AGND*%
%TO.N,unconnected-(U1-Pad33)*%
X76388681Y-89262249D03*
D11*
%TO.P,U1,32,GPIO27_ADC1*%
%TO.N,COL0*%
X78928681Y-89262249D03*
%TO.P,U1,31,GPIO26_ADC0*%
%TO.N,ROW3*%
X81468681Y-89262249D03*
%TO.P,U1,30,RUN*%
%TO.N,unconnected-(U1-Pad30)*%
X84008681Y-89262249D03*
%TO.P,U1,29,GPIO22*%
%TO.N,unconnected-(U1-Pad29)*%
X86548681Y-89262249D03*
D12*
%TO.P,U1,28,GND*%
%TO.N,unconnected-(U1-Pad28)*%
X89088681Y-89262249D03*
D11*
%TO.P,U1,27,GPIO21*%
%TO.N,unconnected-(U1-Pad27)*%
X91628681Y-89262249D03*
%TO.P,U1,26,GPIO20*%
%TO.N,COL2*%
X94168681Y-89262249D03*
%TO.P,U1,25,GPIO19*%
%TO.N,COL3*%
X96708681Y-89262249D03*
%TO.P,U1,24,GPIO18*%
%TO.N,COL4*%
X99248681Y-89262249D03*
D12*
%TO.P,U1,23,GND*%
%TO.N,unconnected-(U1-Pad23)*%
X101788681Y-89262249D03*
D11*
%TO.P,U1,22,GPIO17*%
%TO.N,COL5*%
X104328681Y-89262249D03*
%TO.P,U1,21,GPIO16*%
%TO.N,COL6*%
X106868681Y-89262249D03*
%TO.P,U1,20,GPIO15*%
%TO.N,COL7*%
X106868681Y-71482249D03*
%TO.P,U1,19,GPIO14*%
%TO.N,COL8*%
X104328681Y-71482249D03*
D12*
%TO.P,U1,18,GND*%
%TO.N,unconnected-(U1-Pad18)*%
X101788681Y-71482249D03*
D11*
%TO.P,U1,17,GPIO13*%
%TO.N,COL9*%
X99248681Y-71482249D03*
%TO.P,U1,16,GPIO12*%
%TO.N,COL10*%
X96708681Y-71482249D03*
%TO.P,U1,15,GPIO11*%
%TO.N,COL11*%
X94168681Y-71482249D03*
%TO.P,U1,14,GPIO10*%
%TO.N,COL1*%
X91628681Y-71482249D03*
D12*
%TO.P,U1,13,GND*%
%TO.N,unconnected-(U1-Pad13)*%
X89088681Y-71482249D03*
D11*
%TO.P,U1,12,GPIO9*%
%TO.N,unconnected-(U1-Pad12)*%
X86548681Y-71482249D03*
%TO.P,U1,11,GPIO8*%
%TO.N,unconnected-(U1-Pad11)*%
X84008681Y-71482249D03*
%TO.P,U1,10,GPIO7*%
%TO.N,unconnected-(U1-Pad10)*%
X81468681Y-71482249D03*
%TO.P,U1,9,GPIO6*%
%TO.N,unconnected-(U1-Pad9)*%
X78928681Y-71482249D03*
D12*
%TO.P,U1,8,GND*%
%TO.N,unconnected-(U1-Pad8)*%
X76388681Y-71482249D03*
D11*
%TO.P,U1,7,GPIO5*%
%TO.N,unconnected-(U1-Pad7)*%
X73848681Y-71482249D03*
%TO.P,U1,6,GPIO4*%
%TO.N,unconnected-(U1-Pad6)*%
X71308681Y-71482249D03*
%TO.P,U1,5,GPIO3*%
%TO.N,unconnected-(U1-Pad5)*%
X68768681Y-71482249D03*
%TO.P,U1,4,GPIO2*%
%TO.N,unconnected-(U1-Pad4)*%
X66228681Y-71482249D03*
D12*
%TO.P,U1,3,GND*%
%TO.N,unconnected-(U1-Pad3)*%
X63688681Y-71482249D03*
D11*
%TO.P,U1,2,GPIO1*%
%TO.N,ROW1*%
X61148681Y-71482249D03*
%TO.P,U1,1,GPIO0*%
%TO.N,ROW0*%
X58608681Y-71482249D03*
%TD*%
D13*
%TO.N,ROW1*%
X259268681Y-73387249D03*
X221295681Y-73387249D03*
X163891681Y-73387249D03*
X110170681Y-73387249D03*
X126045681Y-73387249D03*
X144841681Y-73387249D03*
X278318681Y-73387249D03*
X183068681Y-73387249D03*
X201991681Y-73387249D03*
X240218681Y-73387249D03*
%TO.N,Net-(D15-Pad2)*%
X114996681Y-76943249D03*
%TO.N,ROW2*%
X278318681Y-92564249D03*
X221041681Y-92564249D03*
X259141681Y-92564249D03*
X182941681Y-92564249D03*
X163891681Y-92564249D03*
X125791681Y-92564249D03*
X144841681Y-92564249D03*
X240345681Y-92564249D03*
X201991681Y-92564249D03*
X110170681Y-92564249D03*
D14*
%TO.N,ROW3*%
X221168681Y-110979249D03*
X173416681Y-108439249D03*
X125791681Y-110979249D03*
X240218681Y-110979249D03*
X201991681Y-110979249D03*
X278318681Y-110852249D03*
X79690681Y-110979249D03*
X259268681Y-110979249D03*
X144968681Y-110979249D03*
X87818681Y-110979249D03*
X106995681Y-110979249D03*
%TO.N,COL0*%
X62926681Y-94723249D03*
X60640681Y-66656249D03*
X62905280Y-56390650D03*
X62164681Y-113519249D03*
X56068681Y-66656249D03*
X56068681Y-75292249D03*
%TO.N,COL1*%
X80960681Y-75419249D03*
X81468681Y-56369249D03*
X81341681Y-113392249D03*
X81341681Y-94469249D03*
%TO.N,COL2*%
X100264681Y-75927249D03*
X100137681Y-113519249D03*
X99910681Y-94369249D03*
X100137681Y-56369249D03*
%TO.N,COL3*%
X119314681Y-56369249D03*
X119314681Y-113392249D03*
X119314681Y-75419249D03*
D13*
X120076681Y-90405249D03*
D14*
X119187681Y-94469249D03*
D13*
%TO.N,COL4*%
X139126681Y-89897249D03*
D14*
X138364681Y-113392249D03*
X138237681Y-94342249D03*
X138237681Y-56369249D03*
X138237681Y-75292249D03*
%TO.N,COL5*%
X157160681Y-56369249D03*
X158049681Y-88119249D03*
X157414681Y-94342249D03*
X157287681Y-75419249D03*
%TO.N,COL6*%
X176972681Y-89262249D03*
X176210681Y-56242249D03*
X166939681Y-113519249D03*
X176210681Y-75419249D03*
X176337681Y-94469249D03*
D13*
%TO.N,COL7*%
X196022681Y-69577249D03*
D14*
X195260681Y-113392249D03*
X195260681Y-56496249D03*
X195260681Y-94469249D03*
X195133681Y-75419249D03*
%TO.N,COL8*%
X214183681Y-94342249D03*
D13*
X215072681Y-68815249D03*
D14*
X214183681Y-75419249D03*
X214310681Y-113392249D03*
X214310681Y-56369249D03*
%TO.N,COL9*%
X233233681Y-94342249D03*
X233106681Y-113392249D03*
D13*
X233868681Y-70085249D03*
D14*
X233106681Y-56369249D03*
X233106681Y-75419249D03*
%TO.N,COL10*%
X252283681Y-94342249D03*
X251902681Y-56496249D03*
D13*
X252918681Y-70593249D03*
D14*
X252283681Y-75292249D03*
X252156681Y-113519249D03*
%TO.N,COL11*%
X271333681Y-56369249D03*
X271206681Y-75292249D03*
X271206681Y-113392249D03*
X271079681Y-94342249D03*
D13*
X271986681Y-71210249D03*
%TD*%
D15*
%TO.N,ROW1*%
X126045681Y-73387249D02*
X144841681Y-73387249D01*
X221295681Y-73387249D02*
X240218681Y-73387249D01*
X201991681Y-73387249D02*
X221295681Y-73387249D01*
X259268681Y-73387249D02*
X278318681Y-73387249D01*
X110170681Y-73387249D02*
X126045681Y-73387249D01*
X144841681Y-73387249D02*
X163891681Y-73387249D01*
X240218681Y-73387249D02*
X259268681Y-73387249D01*
X163891681Y-73387249D02*
X183068681Y-73387249D01*
X183068681Y-73387249D02*
X201991681Y-73387249D01*
D16*
%TO.N,Net-(D15-Pad2)*%
X108519681Y-76943249D02*
X114996681Y-76943249D01*
X103466681Y-77909249D02*
X104720681Y-76655249D01*
X108231681Y-76655249D02*
X108519681Y-76943249D01*
X104720681Y-76655249D02*
X108231681Y-76655249D01*
D15*
%TO.N,ROW2*%
X182941681Y-92564249D02*
X201991681Y-92564249D01*
X240345681Y-92564249D02*
X259141681Y-92564249D01*
X201991681Y-92564249D02*
X221041681Y-92564249D01*
X221041681Y-92564249D02*
X240345681Y-92564249D01*
X259141681Y-92564249D02*
X278318681Y-92564249D01*
X163891681Y-92564249D02*
X182941681Y-92564249D01*
X110170681Y-92564249D02*
X125791681Y-92564249D01*
X144841681Y-92564249D02*
X163891681Y-92564249D01*
X125791681Y-92564249D02*
X144841681Y-92564249D01*
D17*
%TO.N,ROW3*%
X173416681Y-108439249D02*
X189164681Y-108439249D01*
X221168681Y-110979249D02*
X240218681Y-110979249D01*
X87818681Y-110979249D02*
X106995681Y-110979249D01*
X278191681Y-110979249D02*
X278318681Y-110852249D01*
X125791681Y-110979249D02*
X144968681Y-110979249D01*
X81468681Y-93072249D02*
X79690681Y-94850249D01*
X189164681Y-108439249D02*
X191704681Y-110979249D01*
X81468681Y-89262249D02*
X81468681Y-93072249D01*
X144968681Y-110979249D02*
X156144681Y-110979249D01*
X240218681Y-110979249D02*
X259268681Y-110979249D01*
X79690681Y-110979249D02*
X87818681Y-110979249D01*
X191704681Y-110979249D02*
X201991681Y-110979249D01*
X79690681Y-94850249D02*
X79690681Y-110979249D01*
X158684681Y-108439249D02*
X173416681Y-108439249D01*
X156144681Y-110979249D02*
X158684681Y-108439249D01*
X259268681Y-110979249D02*
X278191681Y-110979249D01*
X201991681Y-110979249D02*
X221168681Y-110979249D01*
X106995681Y-110979249D02*
X125791681Y-110979249D01*
%TO.N,COL0*%
X78928681Y-93072249D02*
X78928681Y-89262249D01*
D18*
X62926681Y-56369249D02*
X62905280Y-56390650D01*
X56068681Y-66656249D02*
X60640681Y-66656249D01*
X71816681Y-113369249D02*
X62314681Y-113369249D01*
D15*
X71816681Y-94369249D02*
X73186681Y-94369249D01*
D17*
X77631681Y-94369249D02*
X78928681Y-93072249D01*
D18*
X62314681Y-113369249D02*
X62164681Y-113519249D01*
X71816681Y-75369249D02*
X56145681Y-75369249D01*
X62926681Y-94723249D02*
X63280681Y-94369249D01*
X56145681Y-75369249D02*
X56068681Y-75292249D01*
X71816681Y-56369249D02*
X63815681Y-56369249D01*
D17*
X73186681Y-94369249D02*
X77631681Y-94369249D01*
D18*
X63280681Y-94369249D02*
X71816681Y-94369249D01*
X63815681Y-56369249D02*
X62926681Y-56369249D01*
D17*
%TO.N,COL1*%
X81364681Y-113369249D02*
X81341681Y-113392249D01*
X90816681Y-56369249D02*
X81468681Y-56369249D01*
D18*
X81010681Y-75369249D02*
X80960681Y-75419249D01*
D17*
X90816681Y-113369249D02*
X81364681Y-113369249D01*
X81441681Y-94369249D02*
X81341681Y-94469249D01*
D18*
X90816681Y-75369249D02*
X90816681Y-72294249D01*
X90816681Y-75369249D02*
X81010681Y-75369249D01*
X90816681Y-72294249D02*
X91628681Y-71482249D01*
D17*
X90816681Y-94369249D02*
X81441681Y-94369249D01*
%TO.N,COL2*%
X109281681Y-75927249D02*
X100264681Y-75927249D01*
D15*
X99910681Y-94369249D02*
X109816681Y-94369249D01*
X94830681Y-94369249D02*
X99910681Y-94369249D01*
D17*
X109816681Y-75369249D02*
X109816681Y-75392249D01*
X109816681Y-75392249D02*
X109408681Y-75800249D01*
X94168681Y-89262249D02*
X94168681Y-93707249D01*
X109408681Y-75800249D02*
X109281681Y-75927249D01*
X109816681Y-113369249D02*
X100287681Y-113369249D01*
D18*
X109816681Y-56369249D02*
X100137681Y-56369249D01*
D17*
X100287681Y-113369249D02*
X100137681Y-113519249D01*
D15*
X94168681Y-93707249D02*
X94830681Y-94369249D01*
%TO.N,COL3*%
X110170681Y-90532249D02*
X110297681Y-90405249D01*
X114742681Y-90405249D02*
X120076681Y-90405249D01*
D17*
X119337681Y-113369249D02*
X119314681Y-113392249D01*
X128816681Y-75369249D02*
X119364681Y-75369249D01*
D15*
X109789681Y-91802249D02*
X109789681Y-90913249D01*
X109789681Y-91802249D02*
X108138681Y-93453249D01*
D17*
X119287681Y-94369249D02*
X119187681Y-94469249D01*
D15*
X110297681Y-90405249D02*
X114742681Y-90405249D01*
D17*
X128816681Y-113369249D02*
X119337681Y-113369249D01*
X128816681Y-56369249D02*
X119314681Y-56369249D01*
X128816681Y-94369249D02*
X119287681Y-94369249D01*
X96708681Y-92691249D02*
X96708681Y-89262249D01*
D15*
X108138681Y-93453249D02*
X97470681Y-93453249D01*
D17*
X119364681Y-75369249D02*
X119314681Y-75419249D01*
D15*
X109789681Y-90913249D02*
X110170681Y-90532249D01*
X97470681Y-93453249D02*
X96708681Y-92691249D01*
%TO.N,COL4*%
X109662681Y-89770249D02*
X138999681Y-89770249D01*
X99756681Y-92691249D02*
X107503681Y-92691249D01*
D17*
X147816681Y-113369249D02*
X138387681Y-113369249D01*
D15*
X109027681Y-91167249D02*
X109027681Y-90405249D01*
D17*
X99248681Y-89262249D02*
X99248681Y-92183249D01*
X138264681Y-94369249D02*
X138237681Y-94342249D01*
D15*
X99248681Y-92183249D02*
X99756681Y-92691249D01*
D17*
X147816681Y-94369249D02*
X138264681Y-94369249D01*
D15*
X107503681Y-92691249D02*
X109027681Y-91167249D01*
X138999681Y-89770249D02*
X139126681Y-89897249D01*
D17*
X147816681Y-56369249D02*
X138237681Y-56369249D01*
D15*
X148016681Y-94169249D02*
X147816681Y-94369249D01*
D17*
X138314681Y-75369249D02*
X138237681Y-75292249D01*
X147816681Y-75369249D02*
X138314681Y-75369249D01*
X138387681Y-113369249D02*
X138364681Y-113392249D01*
D15*
X109027681Y-90405249D02*
X109662681Y-89770249D01*
D17*
%TO.N,COL5*%
X166816681Y-75369249D02*
X157337681Y-75369249D01*
X104328681Y-88373249D02*
X105344681Y-87357249D01*
X104328681Y-89262249D02*
X104328681Y-88373249D01*
X166816681Y-94369249D02*
X157441681Y-94369249D01*
X157337681Y-75369249D02*
X157287681Y-75419249D01*
D15*
X108138681Y-87357249D02*
X108900681Y-88119249D01*
D17*
X157441681Y-94369249D02*
X157414681Y-94342249D01*
D15*
X105344681Y-87357249D02*
X108138681Y-87357249D01*
D17*
X166816681Y-56369249D02*
X157160681Y-56369249D01*
D15*
X108900681Y-88119249D02*
X158049681Y-88119249D01*
D17*
%TO.N,COL6*%
X176591681Y-113369249D02*
X167089681Y-113369249D01*
X185816681Y-75369249D02*
X176260681Y-75369249D01*
D15*
X106868681Y-89262249D02*
X106995681Y-89135249D01*
D17*
X167089681Y-113369249D02*
X166939681Y-113519249D01*
X176337681Y-56369249D02*
X176210681Y-56242249D01*
X185816681Y-94369249D02*
X176437681Y-94369249D01*
D15*
X176845681Y-89135249D02*
X176972681Y-89262249D01*
X106995681Y-89135249D02*
X176845681Y-89135249D01*
D17*
X176260681Y-75369249D02*
X176210681Y-75419249D01*
X185816681Y-56369249D02*
X176337681Y-56369249D01*
X176437681Y-94369249D02*
X176337681Y-94469249D01*
%TO.N,COL7*%
X204816681Y-56369249D02*
X195387681Y-56369249D01*
D15*
X106868681Y-71482249D02*
X106868681Y-69831249D01*
D17*
X204816681Y-75369249D02*
X195183681Y-75369249D01*
X195360681Y-94369249D02*
X195260681Y-94469249D01*
X204816681Y-113369249D02*
X195283681Y-113369249D01*
D15*
X195895681Y-69450249D02*
X196022681Y-69577249D01*
X106868681Y-69831249D02*
X107249681Y-69450249D01*
D17*
X204816681Y-94369249D02*
X195360681Y-94369249D01*
X195387681Y-56369249D02*
X195260681Y-56496249D01*
X195283681Y-113369249D02*
X195260681Y-113392249D01*
X195183681Y-75369249D02*
X195133681Y-75419249D01*
D15*
X107249681Y-69450249D02*
X195895681Y-69450249D01*
X106868681Y-71482249D02*
X107503681Y-71482249D01*
D17*
%TO.N,COL8*%
X214210681Y-94369249D02*
X214183681Y-94342249D01*
X223816681Y-56369249D02*
X214310681Y-56369249D01*
D15*
X104328681Y-71482249D02*
X104328681Y-69577249D01*
D17*
X223816681Y-75369249D02*
X214233681Y-75369249D01*
X223816681Y-113369249D02*
X214333681Y-113369249D01*
D15*
X104328681Y-69577249D02*
X104836681Y-69069249D01*
D17*
X214333681Y-113369249D02*
X214310681Y-113392249D01*
D15*
X104836681Y-69069249D02*
X104887083Y-69069249D01*
D17*
X223816681Y-94369249D02*
X214210681Y-94369249D01*
D15*
X108392681Y-68053249D02*
X109154681Y-68815249D01*
D17*
X214233681Y-75369249D02*
X214183681Y-75419249D01*
X104887083Y-69069249D02*
X105903083Y-68053249D01*
D15*
X109154681Y-68815249D02*
X215072681Y-68815249D01*
X105903083Y-68053249D02*
X108392681Y-68053249D01*
%TO.N,COL9*%
X109145981Y-70170149D02*
X233783781Y-70170149D01*
D17*
X233156681Y-75369249D02*
X233106681Y-75419249D01*
D15*
X99807481Y-73565049D02*
X107173481Y-73565049D01*
D17*
X99248681Y-71482249D02*
X99248681Y-73006249D01*
D15*
X108316481Y-72422049D02*
X108316481Y-70999649D01*
X107173481Y-73565049D02*
X108316481Y-72422049D01*
D17*
X242816681Y-56369249D02*
X233106681Y-56369249D01*
X242816681Y-113369249D02*
X233129681Y-113369249D01*
X233260681Y-94369249D02*
X233233681Y-94342249D01*
D15*
X108316481Y-70999649D02*
X109145981Y-70170149D01*
X99248681Y-73006249D02*
X99807481Y-73565049D01*
D17*
X242816681Y-94369249D02*
X233260681Y-94369249D01*
D15*
X233783781Y-70170149D02*
X233868681Y-70085249D01*
D17*
X242816681Y-75369249D02*
X233156681Y-75369249D01*
X233129681Y-113369249D02*
X233106681Y-113392249D01*
D15*
%TO.N,COL10*%
X96708681Y-73895249D02*
X97013481Y-74200049D01*
D17*
X252310681Y-94369249D02*
X252283681Y-94342249D01*
D15*
X108900681Y-71609249D02*
X109789681Y-70720249D01*
D17*
X261816681Y-56369249D02*
X252029681Y-56369249D01*
X252029681Y-56369249D02*
X251902681Y-56496249D01*
D15*
X109789681Y-70720249D02*
X252791681Y-70720249D01*
D17*
X96708681Y-71482249D02*
X96708681Y-73895249D01*
D15*
X108900681Y-72904649D02*
X108900681Y-71609249D01*
D17*
X261816681Y-94369249D02*
X252310681Y-94369249D01*
X261816681Y-113369249D02*
X252306681Y-113369249D01*
X252360681Y-75369249D02*
X252283681Y-75292249D01*
X252306681Y-113369249D02*
X252156681Y-113519249D01*
X261816681Y-75369249D02*
X252360681Y-75369249D01*
D15*
X97013481Y-74200049D02*
X107605281Y-74200049D01*
X252791681Y-70720249D02*
X252918681Y-70593249D01*
X107605281Y-74200049D02*
X108900681Y-72904649D01*
D17*
%TO.N,COL11*%
X280816681Y-113369249D02*
X271229681Y-113369249D01*
X271283681Y-75369249D02*
X271206681Y-75292249D01*
X280816681Y-94369249D02*
X271106681Y-94369249D01*
D15*
X271986681Y-71210249D02*
X271859681Y-71210249D01*
D17*
X271229681Y-113369249D02*
X271206681Y-113392249D01*
D15*
X271714681Y-71355249D02*
X110297681Y-71355249D01*
X107935481Y-74911249D02*
X94930681Y-74911249D01*
D17*
X94168681Y-74149249D02*
X94168681Y-71482249D01*
X280816681Y-75369249D02*
X271283681Y-75369249D01*
D15*
X271859681Y-71210249D02*
X271714681Y-71355249D01*
X109561081Y-73285649D02*
X107935481Y-74911249D01*
X110297681Y-71355249D02*
X109561081Y-72091849D01*
D17*
X280816681Y-56369249D02*
X271333681Y-56369249D01*
X271106681Y-94369249D02*
X271079681Y-94342249D01*
D15*
X94930681Y-74911249D02*
X94168681Y-74149249D01*
X109561081Y-72091849D02*
X109561081Y-73285649D01*
%TD*%
M02*
