M48
; DRILL file {KiCad (6.0.11)} date Fri Apr 14 22:13:11 2023
; FORMAT={-:-/ absolute / inch / decimal}
; #@! TF.CreationDate,2023-04-14T22:13:11-06:00
; #@! TF.GenerationSoftware,Kicad,Pcbnew,(6.0.11)
; #@! TF.FileFunction,NonPlated,1,2,NPTH
FMAT,2
INCH
; #@! TA.AperFunction,NonPlated,NPTH,ComponentDrill
T1C0.0591
; #@! TA.AperFunction,NonPlated,NPTH,ComponentDrill
T2C0.0670
; #@! TA.AperFunction,NonPlated,NPTH,ComponentDrill
T3C0.0709
; #@! TA.AperFunction,NonPlated,NPTH,ComponentDrill
T4C0.1181
; #@! TA.AperFunction,NonPlated,NPTH,ComponentDrill
T5C0.1200
; #@! TA.AperFunction,NonPlated,NPTH,ComponentDrill
T6C0.1260
; #@! TA.AperFunction,NonPlated,NPTH,ComponentDrill
T7C0.1570
%
G90
G05
T1
X2.4318Y-3.0688
X2.4318Y-3.2597
T2
X2.5274Y-2.4193
X2.5274Y-3.1673
X2.5274Y-3.9153
X2.5274Y-4.6634
X2.9274Y-2.4193
X2.9274Y-3.1673
X2.9274Y-3.9153
X2.9274Y-4.6634
X3.2755Y-2.4193
X3.2755Y-3.1673
X3.2755Y-3.9153
X3.2755Y-4.6634
X3.6755Y-2.4193
X3.6755Y-3.1673
X3.6755Y-3.9153
X3.6755Y-4.6634
X4.0235Y-2.4193
X4.0235Y-3.1673
X4.0235Y-3.9153
X4.0235Y-4.6634
X4.4235Y-2.4193
X4.4235Y-3.1673
X4.4235Y-3.9153
X4.4235Y-4.6634
X4.7715Y-2.4193
X4.7715Y-3.1673
X4.7715Y-3.9153
X4.7715Y-4.6634
X5.1715Y-2.4193
X5.1715Y-3.1673
X5.1715Y-3.9153
X5.1715Y-4.6634
X5.5196Y-2.4193
X5.5196Y-3.1673
X5.5196Y-3.9153
X5.5196Y-4.6634
X5.9196Y-2.4193
X5.9196Y-3.1673
X5.9196Y-3.9153
X5.9196Y-4.6634
X6.2676Y-2.4193
X6.2676Y-3.1673
X6.2676Y-3.9153
X6.6524Y-4.6634
X6.6676Y-2.4193
X6.6676Y-3.1673
X6.6676Y-3.9153
X7.0156Y-2.4193
X7.0156Y-3.1673
X7.0156Y-3.9153
X7.0524Y-4.6634
X7.4156Y-2.4193
X7.4156Y-3.1673
X7.4156Y-3.9153
X7.7636Y-2.4193
X7.7636Y-3.1673
X7.7636Y-3.9153
X7.7636Y-4.6634
X8.1636Y-2.4193
X8.1636Y-3.1673
X8.1636Y-3.9153
X8.1636Y-4.6634
X8.5117Y-2.4193
X8.5117Y-3.1673
X8.5117Y-3.9153
X8.5117Y-4.6634
X8.9117Y-2.4193
X8.9117Y-3.1673
X8.9117Y-3.9153
X8.9117Y-4.6634
X9.2597Y-2.4193
X9.2597Y-3.1673
X9.2597Y-3.9153
X9.2597Y-4.6634
X9.6597Y-2.4193
X9.6597Y-3.1673
X9.6597Y-3.9153
X9.6597Y-4.6634
X10.0077Y-2.4193
X10.0077Y-3.1673
X10.0077Y-3.9153
X10.0077Y-4.6634
X10.4077Y-2.4193
X10.4077Y-3.1673
X10.4077Y-3.9153
X10.4077Y-4.6634
X10.7558Y-2.4193
X10.7558Y-3.1673
X10.7558Y-3.9153
X10.7558Y-4.6634
X11.1558Y-2.4193
X11.1558Y-3.1673
X11.1558Y-3.9153
X11.1558Y-4.6634
T3
X2.3125Y-3.057
X2.3125Y-3.2715
T4
X2.6274Y-2.6193
X2.6274Y-3.3673
X2.6274Y-4.1153
X2.6274Y-4.8634
X2.8774Y-2.5193
X2.8774Y-3.2673
X2.8774Y-4.0153
X2.8774Y-4.7634
X3.3755Y-2.6193
X3.3755Y-3.3673
X3.3755Y-4.1153
X3.3755Y-4.8634
X3.6255Y-2.5193
X3.6255Y-3.2673
X3.6255Y-4.0153
X3.6255Y-4.7634
X4.1235Y-2.6193
X4.1235Y-3.3673
X4.1235Y-4.1153
X4.1235Y-4.8634
X4.3735Y-2.5193
X4.3735Y-3.2673
X4.3735Y-4.0153
X4.3735Y-4.7634
X4.8715Y-2.6193
X4.8715Y-3.3673
X4.8715Y-4.1153
X4.8715Y-4.8634
X5.1215Y-2.5193
X5.1215Y-3.2673
X5.1215Y-4.0153
X5.1215Y-4.7634
X5.6196Y-2.6193
X5.6196Y-3.3673
X5.6196Y-4.1153
X5.6196Y-4.8634
X5.8696Y-2.5193
X5.8696Y-3.2673
X5.8696Y-4.0153
X5.8696Y-4.7634
X6.3676Y-2.6193
X6.3676Y-3.3673
X6.3676Y-4.1153
X6.6176Y-2.5193
X6.6176Y-3.2673
X6.6176Y-4.0153
X6.7524Y-4.8634
X7.0024Y-4.7634
X7.1156Y-2.6193
X7.1156Y-3.3673
X7.1156Y-4.1153
X7.3656Y-2.5193
X7.3656Y-3.2673
X7.3656Y-4.0153
X7.8636Y-2.6193
X7.8636Y-3.3673
X7.8636Y-4.1153
X7.8636Y-4.8634
X8.1136Y-2.5193
X8.1136Y-3.2673
X8.1136Y-4.0153
X8.1136Y-4.7634
X8.6117Y-2.6193
X8.6117Y-3.3673
X8.6117Y-4.1153
X8.6117Y-4.8634
X8.8617Y-2.5193
X8.8617Y-3.2673
X8.8617Y-4.0153
X8.8617Y-4.7634
X9.3597Y-2.6193
X9.3597Y-3.3673
X9.3597Y-4.1153
X9.3597Y-4.8634
X9.6097Y-2.5193
X9.6097Y-3.2673
X9.6097Y-4.0153
X9.6097Y-4.7634
X10.1077Y-2.6193
X10.1077Y-3.3673
X10.1077Y-4.1153
X10.1077Y-4.8634
X10.3577Y-2.5193
X10.3577Y-3.2673
X10.3577Y-4.0153
X10.3577Y-4.7634
X10.8558Y-2.6193
X10.8558Y-3.3673
X10.8558Y-4.1153
X10.8558Y-4.8634
X11.1058Y-2.5193
X11.1058Y-3.2673
X11.1058Y-4.0153
X11.1058Y-4.7634
T5
X6.3824Y-4.3884
X7.3224Y-4.3884
T6
X2.2594Y-1.9553
X2.2594Y-5.1443
X6.8464Y-1.9543
X6.8464Y-5.1433
X11.4324Y-1.9553
X11.4324Y-5.1433
T7
X2.7274Y-2.4193
X2.7274Y-3.1673
X2.7274Y-3.9153
X2.7274Y-4.6634
X3.4755Y-2.4193
X3.4755Y-3.1673
X3.4755Y-3.9153
X3.4755Y-4.6634
X4.2235Y-2.4193
X4.2235Y-3.1673
X4.2235Y-3.9153
X4.2235Y-4.6634
X4.9715Y-2.4193
X4.9715Y-3.1673
X4.9715Y-3.9153
X4.9715Y-4.6634
X5.7196Y-2.4193
X5.7196Y-3.1673
X5.7196Y-3.9153
X5.7196Y-4.6634
X6.3824Y-4.9872
X6.4676Y-2.4193
X6.4676Y-3.1673
X6.4676Y-3.9153
X6.8524Y-4.6634
X7.2156Y-2.4193
X7.2156Y-3.1673
X7.2156Y-3.9153
X7.3224Y-4.9872
X7.9636Y-2.4193
X7.9636Y-3.1673
X7.9636Y-3.9153
X7.9636Y-4.6634
X8.7117Y-2.4193
X8.7117Y-3.1673
X8.7117Y-3.9153
X8.7117Y-4.6634
X9.4597Y-2.4193
X9.4597Y-3.1673
X9.4597Y-3.9153
X9.4597Y-4.6634
X10.2077Y-2.4193
X10.2077Y-3.1673
X10.2077Y-3.9153
X10.2077Y-4.6634
X10.9558Y-2.4193
X10.9558Y-3.1673
X10.9558Y-3.9153
X10.9558Y-4.6634
T0
M30
