%TF.GenerationSoftware,KiCad,Pcbnew,(6.0.11)*%
%TF.CreationDate,2023-04-14T22:13:07-06:00*%
%TF.ProjectId,JL Planck,4a4c2050-6c61-46e6-936b-2e6b69636164,rev?*%
%TF.SameCoordinates,Original*%
%TF.FileFunction,Soldermask,Bot*%
%TF.FilePolarity,Negative*%
%FSLAX46Y46*%
G04 Gerber Fmt 4.6, Leading zero omitted, Abs format (unit mm)*
G04 Created by KiCad (PCBNEW (6.0.11)) date 2023-04-14 22:13:07*
%MOMM*%
%LPD*%
G01*
G04 APERTURE LIST*
%ADD10C,3.048000*%
%ADD11C,3.987800*%
%ADD12R,2.550000X2.500000*%
%ADD13C,2.286000*%
%ADD14C,1.701800*%
%ADD15C,3.000000*%
%ADD16C,3.200000*%
%ADD17R,0.900000X1.200000*%
%ADD18R,3.500000X1.700000*%
%ADD19O,1.700000X1.700000*%
%ADD20R,1.700000X1.700000*%
%ADD21R,1.700000X3.500000*%
%ADD22O,1.800000X1.800000*%
%ADD23O,1.500000X1.500000*%
G04 APERTURE END LIST*
D10*
%TO.C,J1*%
X162113681Y-111464249D03*
X185989681Y-111464249D03*
D11*
X162113681Y-126674249D03*
X185989681Y-126674249D03*
%TD*%
D12*
%TO.C,SW26*%
X95836681Y-101989249D03*
D13*
X84466681Y-96909249D03*
X90816681Y-94369249D03*
D12*
X81986681Y-104529249D03*
D14*
X83196681Y-99449249D03*
X93356681Y-99449249D03*
D15*
X85736681Y-104529249D03*
D11*
X88276681Y-99449249D03*
D15*
X92086681Y-101989249D03*
%TD*%
D13*
%TO.C,SW25*%
X65466681Y-96909249D03*
D12*
X76836681Y-101989249D03*
D13*
X71816681Y-94369249D03*
D12*
X62986681Y-104529249D03*
D15*
X66736681Y-104529249D03*
D14*
X64196681Y-99449249D03*
D11*
X69276681Y-99449249D03*
D14*
X74356681Y-99449249D03*
D15*
X73086681Y-101989249D03*
%TD*%
D13*
%TO.C,SW18*%
X160466681Y-77909249D03*
D12*
X171836681Y-82989249D03*
D13*
X166816681Y-75369249D03*
D12*
X157986681Y-85529249D03*
D15*
X161736681Y-85529249D03*
D14*
X159196681Y-80449249D03*
D15*
X168086681Y-82989249D03*
D14*
X169356681Y-80449249D03*
D11*
X164276681Y-80449249D03*
%TD*%
D13*
%TO.C,SW44*%
X217466681Y-115909249D03*
D12*
X228836681Y-120989249D03*
D13*
X223816681Y-113369249D03*
D12*
X214986681Y-123529249D03*
D14*
X216196681Y-118449249D03*
D15*
X218736681Y-123529249D03*
D14*
X226356681Y-118449249D03*
D15*
X225086681Y-120989249D03*
D11*
X221276681Y-118449249D03*
%TD*%
%TO.C,SW14*%
X88276681Y-80449249D03*
D15*
X92086681Y-82989249D03*
X85736681Y-85529249D03*
D14*
X83196681Y-80449249D03*
X93356681Y-80449249D03*
D13*
X90816681Y-75369249D03*
D12*
X81986681Y-85529249D03*
X95836681Y-82989249D03*
D13*
X84466681Y-77909249D03*
%TD*%
D12*
%TO.C,SW29*%
X152836681Y-101989249D03*
D13*
X141466681Y-96909249D03*
D12*
X138986681Y-104529249D03*
D13*
X147816681Y-94369249D03*
D14*
X150356681Y-99449249D03*
X140196681Y-99449249D03*
D15*
X142736681Y-104529249D03*
X149086681Y-101989249D03*
D11*
X145276681Y-99449249D03*
%TD*%
D13*
%TO.C,SW20*%
X198466681Y-77909249D03*
D12*
X209836681Y-82989249D03*
D13*
X204816681Y-75369249D03*
D12*
X195986681Y-85529249D03*
D11*
X202276681Y-80449249D03*
D14*
X207356681Y-80449249D03*
D15*
X199736681Y-85529249D03*
D14*
X197196681Y-80449249D03*
D15*
X206086681Y-82989249D03*
%TD*%
D16*
%TO.C,H4*%
X57389481Y-49663649D03*
%TD*%
D12*
%TO.C,SW23*%
X266836681Y-82989249D03*
D13*
X255466681Y-77909249D03*
X261816681Y-75369249D03*
D12*
X252986681Y-85529249D03*
D15*
X256736681Y-85529249D03*
D11*
X259276681Y-80449249D03*
D14*
X254196681Y-80449249D03*
X264356681Y-80449249D03*
D15*
X263086681Y-82989249D03*
%TD*%
D12*
%TO.C,SW16*%
X133836681Y-82989249D03*
D13*
X122466681Y-77909249D03*
D12*
X119986681Y-85529249D03*
D13*
X128816681Y-75369249D03*
D15*
X130086681Y-82989249D03*
D11*
X126276681Y-80449249D03*
D14*
X131356681Y-80449249D03*
X121196681Y-80449249D03*
D15*
X123736681Y-85529249D03*
%TD*%
D12*
%TO.C,SW30*%
X171836681Y-101989249D03*
D13*
X160466681Y-96909249D03*
X166816681Y-94369249D03*
D12*
X157986681Y-104529249D03*
D11*
X164276681Y-99449249D03*
D14*
X169356681Y-99449249D03*
D15*
X161736681Y-104529249D03*
D14*
X159196681Y-99449249D03*
D15*
X168086681Y-101989249D03*
%TD*%
D12*
%TO.C,SW36*%
X285836681Y-101989249D03*
D13*
X274466681Y-96909249D03*
X280816681Y-94369249D03*
D12*
X271986681Y-104529249D03*
D14*
X273196681Y-99449249D03*
X283356681Y-99449249D03*
D15*
X275736681Y-104529249D03*
X282086681Y-101989249D03*
D11*
X278276681Y-99449249D03*
%TD*%
D13*
%TO.C,SW42*%
X170241681Y-115909249D03*
D12*
X181611681Y-120989249D03*
D13*
X176591681Y-113369249D03*
D12*
X167761681Y-123529249D03*
D15*
X171511681Y-123529249D03*
D14*
X168971681Y-118449249D03*
D11*
X174051681Y-118449249D03*
D15*
X177861681Y-120989249D03*
D14*
X179131681Y-118449249D03*
%TD*%
D12*
%TO.C,SW8*%
X209836681Y-63989249D03*
D13*
X198466681Y-58909249D03*
X204816681Y-56369249D03*
D12*
X195986681Y-66529249D03*
D11*
X202276681Y-61449249D03*
D14*
X207356681Y-61449249D03*
D15*
X199736681Y-66529249D03*
D14*
X197196681Y-61449249D03*
D15*
X206086681Y-63989249D03*
%TD*%
D12*
%TO.C,SW37*%
X76836681Y-120989249D03*
D13*
X65466681Y-115909249D03*
D12*
X62986681Y-123529249D03*
D13*
X71816681Y-113369249D03*
D15*
X66736681Y-123529249D03*
D14*
X64196681Y-118449249D03*
X74356681Y-118449249D03*
D11*
X69276681Y-118449249D03*
D15*
X73086681Y-120989249D03*
%TD*%
D13*
%TO.C,SW39*%
X103466681Y-115909249D03*
D12*
X114836681Y-120989249D03*
D13*
X109816681Y-113369249D03*
D12*
X100986681Y-123529249D03*
D11*
X107276681Y-118449249D03*
D15*
X111086681Y-120989249D03*
D14*
X112356681Y-118449249D03*
X102196681Y-118449249D03*
D15*
X104736681Y-123529249D03*
%TD*%
D12*
%TO.C,SW34*%
X247836681Y-101989249D03*
D13*
X236466681Y-96909249D03*
D12*
X233986681Y-104529249D03*
D13*
X242816681Y-94369249D03*
D14*
X235196681Y-99449249D03*
D15*
X237736681Y-104529249D03*
D14*
X245356681Y-99449249D03*
D15*
X244086681Y-101989249D03*
D11*
X240276681Y-99449249D03*
%TD*%
D13*
%TO.C,SW31*%
X179466681Y-96909249D03*
D12*
X190836681Y-101989249D03*
D13*
X185816681Y-94369249D03*
D12*
X176986681Y-104529249D03*
D14*
X188356681Y-99449249D03*
D11*
X183276681Y-99449249D03*
D15*
X180736681Y-104529249D03*
D14*
X178196681Y-99449249D03*
D15*
X187086681Y-101989249D03*
%TD*%
D13*
%TO.C,SW40*%
X122466681Y-115909249D03*
D12*
X133836681Y-120989249D03*
D13*
X128816681Y-113369249D03*
D12*
X119986681Y-123529249D03*
D11*
X126276681Y-118449249D03*
D15*
X123736681Y-123529249D03*
X130086681Y-120989249D03*
D14*
X121196681Y-118449249D03*
X131356681Y-118449249D03*
%TD*%
D13*
%TO.C,SW35*%
X255466681Y-96909249D03*
D12*
X266836681Y-101989249D03*
D13*
X261816681Y-94369249D03*
D12*
X252986681Y-104529249D03*
D14*
X264356681Y-99449249D03*
D15*
X256736681Y-104529249D03*
X263086681Y-101989249D03*
D11*
X259276681Y-99449249D03*
D14*
X254196681Y-99449249D03*
%TD*%
D12*
%TO.C,SW38*%
X95836681Y-120989249D03*
D13*
X84466681Y-115909249D03*
D12*
X81986681Y-123529249D03*
D13*
X90816681Y-113369249D03*
D14*
X83196681Y-118449249D03*
X93356681Y-118449249D03*
D11*
X88276681Y-118449249D03*
D15*
X92086681Y-120989249D03*
X85736681Y-123529249D03*
%TD*%
D16*
%TO.C,H6*%
X57389481Y-130664249D03*
%TD*%
D12*
%TO.C,SW10*%
X247836681Y-63989249D03*
D13*
X236466681Y-58909249D03*
X242816681Y-56369249D03*
D12*
X233986681Y-66529249D03*
D11*
X240276681Y-61449249D03*
D14*
X235196681Y-61449249D03*
D15*
X237736681Y-66529249D03*
X244086681Y-63989249D03*
D14*
X245356681Y-61449249D03*
%TD*%
D12*
%TO.C,SW12*%
X285836681Y-63989249D03*
D13*
X274466681Y-58909249D03*
D12*
X271986681Y-66529249D03*
D13*
X280816681Y-56369249D03*
D15*
X282086681Y-63989249D03*
D14*
X283356681Y-61449249D03*
X273196681Y-61449249D03*
D11*
X278276681Y-61449249D03*
D15*
X275736681Y-66529249D03*
%TD*%
D12*
%TO.C,SW22*%
X247836681Y-82989249D03*
D13*
X236466681Y-77909249D03*
X242816681Y-75369249D03*
D12*
X233986681Y-85529249D03*
D14*
X235196681Y-80449249D03*
D15*
X237736681Y-85529249D03*
D11*
X240276681Y-80449249D03*
D15*
X244086681Y-82989249D03*
D14*
X245356681Y-80449249D03*
%TD*%
D12*
%TO.C,SW6*%
X171836681Y-63989249D03*
D13*
X160466681Y-58909249D03*
X166816681Y-56369249D03*
D12*
X157986681Y-66529249D03*
D11*
X164276681Y-61449249D03*
D14*
X169356681Y-61449249D03*
D15*
X161736681Y-66529249D03*
X168086681Y-63989249D03*
D14*
X159196681Y-61449249D03*
%TD*%
D12*
%TO.C,SW41*%
X152836681Y-120989249D03*
D13*
X141466681Y-115909249D03*
X147816681Y-113369249D03*
D12*
X138986681Y-123529249D03*
D15*
X149086681Y-120989249D03*
D14*
X150356681Y-118449249D03*
X140196681Y-118449249D03*
D11*
X145276681Y-118449249D03*
D15*
X142736681Y-123529249D03*
%TD*%
D12*
%TO.C,SW15*%
X114836681Y-82989249D03*
D13*
X103466681Y-77909249D03*
D12*
X100986681Y-85529249D03*
D13*
X109816681Y-75369249D03*
D15*
X111086681Y-82989249D03*
D14*
X112356681Y-80449249D03*
D11*
X107276681Y-80449249D03*
D14*
X102196681Y-80449249D03*
D15*
X104736681Y-85529249D03*
%TD*%
D12*
%TO.C,SW1*%
X76836681Y-63989249D03*
D13*
X65466681Y-58909249D03*
D12*
X62986681Y-66529249D03*
D13*
X71816681Y-56369249D03*
D15*
X73086681Y-63989249D03*
X66736681Y-66529249D03*
D14*
X74356681Y-61449249D03*
X64196681Y-61449249D03*
D11*
X69276681Y-61449249D03*
%TD*%
D13*
%TO.C,SW13*%
X65466681Y-77909249D03*
D12*
X76836681Y-82989249D03*
D13*
X71816681Y-75369249D03*
D12*
X62986681Y-85529249D03*
D14*
X74356681Y-80449249D03*
D15*
X66736681Y-85529249D03*
D14*
X64196681Y-80449249D03*
D15*
X73086681Y-82989249D03*
D11*
X69276681Y-80449249D03*
%TD*%
D12*
%TO.C,SW24*%
X285836681Y-82989249D03*
D13*
X274466681Y-77909249D03*
D12*
X271986681Y-85529249D03*
D13*
X280816681Y-75369249D03*
D15*
X282086681Y-82989249D03*
D14*
X283356681Y-80449249D03*
D11*
X278276681Y-80449249D03*
D14*
X273196681Y-80449249D03*
D15*
X275736681Y-85529249D03*
%TD*%
D12*
%TO.C,SW17*%
X152836681Y-82989249D03*
D13*
X141466681Y-77909249D03*
X147816681Y-75369249D03*
D12*
X138986681Y-85529249D03*
D15*
X142736681Y-85529249D03*
D11*
X145276681Y-80449249D03*
D14*
X150356681Y-80449249D03*
X140196681Y-80449249D03*
D15*
X149086681Y-82989249D03*
%TD*%
D13*
%TO.C,SW32*%
X198466681Y-96909249D03*
D12*
X209836681Y-101989249D03*
X195986681Y-104529249D03*
D13*
X204816681Y-94369249D03*
D11*
X202276681Y-99449249D03*
D14*
X207356681Y-99449249D03*
X197196681Y-99449249D03*
D15*
X199736681Y-104529249D03*
X206086681Y-101989249D03*
%TD*%
D13*
%TO.C,SW7*%
X179466681Y-58909249D03*
D12*
X190836681Y-63989249D03*
X176986681Y-66529249D03*
D13*
X185816681Y-56369249D03*
D14*
X178196681Y-61449249D03*
D15*
X187086681Y-63989249D03*
X180736681Y-66529249D03*
D14*
X188356681Y-61449249D03*
D11*
X183276681Y-61449249D03*
%TD*%
D12*
%TO.C,SW3*%
X114836681Y-63989249D03*
D13*
X103466681Y-58909249D03*
X109816681Y-56369249D03*
D12*
X100986681Y-66529249D03*
D11*
X107276681Y-61449249D03*
D14*
X102196681Y-61449249D03*
X112356681Y-61449249D03*
D15*
X104736681Y-66529249D03*
X111086681Y-63989249D03*
%TD*%
D13*
%TO.C,SW27*%
X103466681Y-96909249D03*
D12*
X114836681Y-101989249D03*
X100986681Y-104529249D03*
D13*
X109816681Y-94369249D03*
D15*
X111086681Y-101989249D03*
X104736681Y-104529249D03*
D11*
X107276681Y-99449249D03*
D14*
X112356681Y-99449249D03*
X102196681Y-99449249D03*
%TD*%
D12*
%TO.C,SW21*%
X228836681Y-82989249D03*
D13*
X217466681Y-77909249D03*
X223816681Y-75369249D03*
D12*
X214986681Y-85529249D03*
D11*
X221276681Y-80449249D03*
D15*
X225086681Y-82989249D03*
D14*
X226356681Y-80449249D03*
X216196681Y-80449249D03*
D15*
X218736681Y-85529249D03*
%TD*%
D16*
%TO.C,H2*%
X173899281Y-130638849D03*
%TD*%
D13*
%TO.C,SW5*%
X141466681Y-58909249D03*
D12*
X152836681Y-63989249D03*
D13*
X147816681Y-56369249D03*
D12*
X138986681Y-66529249D03*
D15*
X149086681Y-63989249D03*
D14*
X140196681Y-61449249D03*
X150356681Y-61449249D03*
D11*
X145276681Y-61449249D03*
D15*
X142736681Y-66529249D03*
%TD*%
D12*
%TO.C,SW28*%
X133836681Y-101989249D03*
D13*
X122466681Y-96909249D03*
D12*
X119986681Y-104529249D03*
D13*
X128816681Y-94369249D03*
D15*
X130086681Y-101989249D03*
X123736681Y-104529249D03*
D11*
X126276681Y-99449249D03*
D14*
X121196681Y-99449249D03*
X131356681Y-99449249D03*
%TD*%
D12*
%TO.C,SW19*%
X190836681Y-82989249D03*
D13*
X179466681Y-77909249D03*
D12*
X176986681Y-85529249D03*
D13*
X185816681Y-75369249D03*
D15*
X180736681Y-85529249D03*
X187086681Y-82989249D03*
D14*
X188356681Y-80449249D03*
X178196681Y-80449249D03*
D11*
X183276681Y-80449249D03*
%TD*%
D12*
%TO.C,SW43*%
X209836681Y-120989249D03*
D13*
X198466681Y-115909249D03*
D12*
X195986681Y-123529249D03*
D13*
X204816681Y-113369249D03*
D14*
X207356681Y-118449249D03*
D15*
X199736681Y-123529249D03*
D11*
X202276681Y-118449249D03*
D15*
X206086681Y-120989249D03*
D14*
X197196681Y-118449249D03*
%TD*%
D12*
%TO.C,SW46*%
X266836681Y-120989249D03*
D13*
X255466681Y-115909249D03*
D12*
X252986681Y-123529249D03*
D13*
X261816681Y-113369249D03*
D11*
X259276681Y-118449249D03*
D14*
X254196681Y-118449249D03*
D15*
X256736681Y-123529249D03*
X263086681Y-120989249D03*
D14*
X264356681Y-118449249D03*
%TD*%
D12*
%TO.C,SW47*%
X285836681Y-120989249D03*
D13*
X274466681Y-115909249D03*
X280816681Y-113369249D03*
D12*
X271986681Y-123529249D03*
D15*
X275736681Y-123529249D03*
X282086681Y-120989249D03*
D14*
X273196681Y-118449249D03*
D11*
X278276681Y-118449249D03*
D14*
X283356681Y-118449249D03*
%TD*%
D12*
%TO.C,SW33*%
X228836681Y-101989249D03*
D13*
X217466681Y-96909249D03*
X223816681Y-94369249D03*
D12*
X214986681Y-104529249D03*
D14*
X216196681Y-99449249D03*
D15*
X225086681Y-101989249D03*
D14*
X226356681Y-99449249D03*
D15*
X218736681Y-104529249D03*
D11*
X221276681Y-99449249D03*
%TD*%
D12*
%TO.C,SW45*%
X247836681Y-120989249D03*
D13*
X236466681Y-115909249D03*
D12*
X233986681Y-123529249D03*
D13*
X242816681Y-113369249D03*
D11*
X240276681Y-118449249D03*
D14*
X235196681Y-118449249D03*
D15*
X244086681Y-120989249D03*
D14*
X245356681Y-118449249D03*
D15*
X237736681Y-123529249D03*
%TD*%
D13*
%TO.C,SW9*%
X217466681Y-58909249D03*
D12*
X228836681Y-63989249D03*
D13*
X223816681Y-56369249D03*
D12*
X214986681Y-66529249D03*
D14*
X226356681Y-61449249D03*
D15*
X218736681Y-66529249D03*
D14*
X216196681Y-61449249D03*
D15*
X225086681Y-63989249D03*
D11*
X221276681Y-61449249D03*
%TD*%
D16*
%TO.C,H5*%
X290383681Y-130638849D03*
%TD*%
D13*
%TO.C,SW4*%
X122466681Y-58909249D03*
D12*
X133836681Y-63989249D03*
D13*
X128816681Y-56369249D03*
D12*
X119986681Y-66529249D03*
D14*
X131356681Y-61449249D03*
D15*
X130086681Y-63989249D03*
D14*
X121196681Y-61449249D03*
D11*
X126276681Y-61449249D03*
D15*
X123736681Y-66529249D03*
%TD*%
D12*
%TO.C,SW2*%
X95836681Y-63989249D03*
D13*
X84466681Y-58909249D03*
X90816681Y-56369249D03*
D12*
X81986681Y-66529249D03*
D11*
X88276681Y-61449249D03*
D14*
X93356681Y-61449249D03*
D15*
X85736681Y-66529249D03*
X92086681Y-63989249D03*
D14*
X83196681Y-61449249D03*
%TD*%
D12*
%TO.C,SW11*%
X266836681Y-63989249D03*
D13*
X255466681Y-58909249D03*
D12*
X252986681Y-66529249D03*
D13*
X261816681Y-56369249D03*
D14*
X254196681Y-61449249D03*
D11*
X259276681Y-61449249D03*
D15*
X256736681Y-66529249D03*
D14*
X264356681Y-61449249D03*
D15*
X263086681Y-63989249D03*
%TD*%
D16*
%TO.C,H3*%
X290383681Y-49663649D03*
%TD*%
%TO.C,H1*%
X173899281Y-49638249D03*
%TD*%
D17*
%TO.C,D18*%
X163996681Y-74809249D03*
X160696681Y-74809249D03*
%TD*%
%TO.C,D35*%
X259246681Y-93859249D03*
X255946681Y-93859249D03*
%TD*%
%TO.C,D1*%
X68746681Y-55759249D03*
X65446681Y-55759249D03*
%TD*%
%TO.C,D4*%
X125896681Y-55759249D03*
X122596681Y-55759249D03*
%TD*%
%TO.C,D27*%
X106846681Y-94469249D03*
X103546681Y-94469249D03*
%TD*%
%TO.C,D22*%
X240196681Y-74809249D03*
X236896681Y-74809249D03*
%TD*%
%TO.C,D44*%
X221146681Y-112909249D03*
X217846681Y-112909249D03*
%TD*%
%TO.C,D41*%
X144946681Y-112909249D03*
X141646681Y-112909249D03*
%TD*%
%TO.C,D30*%
X163996681Y-93859249D03*
X160696681Y-93859249D03*
%TD*%
%TO.C,D25*%
X68746681Y-93859249D03*
X65446681Y-93859249D03*
%TD*%
%TO.C,D24*%
X278296681Y-74809249D03*
X274996681Y-74809249D03*
%TD*%
%TO.C,D43*%
X202096681Y-112909249D03*
X198796681Y-112909249D03*
%TD*%
%TO.C,D39*%
X106846681Y-112909249D03*
X103546681Y-112909249D03*
%TD*%
%TO.C,D29*%
X144946681Y-93859249D03*
X141646681Y-93859249D03*
%TD*%
%TO.C,D33*%
X221146681Y-93859249D03*
X217846681Y-93859249D03*
%TD*%
%TO.C,D20*%
X202096681Y-74809249D03*
X198796681Y-74809249D03*
%TD*%
%TO.C,D19*%
X183046681Y-74809249D03*
X179746681Y-74809249D03*
%TD*%
%TO.C,D23*%
X259246681Y-74809249D03*
X255946681Y-74809249D03*
%TD*%
%TO.C,D2*%
X87796681Y-55759249D03*
X84496681Y-55759249D03*
%TD*%
%TO.C,D6*%
X163996681Y-55759249D03*
X160696681Y-55759249D03*
%TD*%
%TO.C,D13*%
X65446681Y-74809249D03*
X68746681Y-74809249D03*
%TD*%
%TO.C,D45*%
X240196681Y-112909249D03*
X236896681Y-112909249D03*
%TD*%
%TO.C,D28*%
X125896681Y-93859249D03*
X122596681Y-93859249D03*
%TD*%
%TO.C,D8*%
X202096681Y-55759249D03*
X198796681Y-55759249D03*
%TD*%
%TO.C,D7*%
X183046681Y-55759249D03*
X179746681Y-55759249D03*
%TD*%
%TO.C,D38*%
X87796681Y-112909249D03*
X84496681Y-112909249D03*
%TD*%
%TO.C,D32*%
X202096681Y-93859249D03*
X198796681Y-93859249D03*
%TD*%
%TO.C,D26*%
X87690681Y-94469249D03*
X84390681Y-94469249D03*
%TD*%
%TO.C,D42*%
X173521681Y-112909249D03*
X170221681Y-112909249D03*
%TD*%
%TO.C,D5*%
X144946681Y-55759249D03*
X141646681Y-55759249D03*
%TD*%
%TO.C,D15*%
X104962681Y-75673249D03*
X101662681Y-75673249D03*
%TD*%
%TO.C,D12*%
X278296681Y-55759249D03*
X274996681Y-55759249D03*
%TD*%
%TO.C,D40*%
X125896681Y-112909249D03*
X122596681Y-112909249D03*
%TD*%
%TO.C,D36*%
X278296681Y-93859249D03*
X274996681Y-93859249D03*
%TD*%
%TO.C,D11*%
X259246681Y-55759249D03*
X255946681Y-55759249D03*
%TD*%
%TO.C,D21*%
X221146681Y-74809249D03*
X217846681Y-74809249D03*
%TD*%
%TO.C,D47*%
X278296681Y-112909249D03*
X274996681Y-112909249D03*
%TD*%
%TO.C,D34*%
X240196681Y-93859249D03*
X236896681Y-93859249D03*
%TD*%
%TO.C,D37*%
X68746681Y-112909249D03*
X65446681Y-112909249D03*
%TD*%
%TO.C,D10*%
X240196681Y-55759249D03*
X236896681Y-55759249D03*
%TD*%
%TO.C,D14*%
X87796681Y-74809249D03*
X84496681Y-74809249D03*
%TD*%
D18*
%TO.C,U1*%
X107538681Y-82912249D03*
D19*
X106638681Y-82912249D03*
D18*
X107538681Y-80372249D03*
D20*
X106638681Y-80372249D03*
D18*
X107538681Y-77832249D03*
D19*
X106638681Y-77832249D03*
X58608681Y-89262249D03*
D21*
X58608681Y-90162249D03*
D19*
X61148681Y-89262249D03*
D21*
X61148681Y-90162249D03*
D20*
X63688681Y-89262249D03*
D21*
X63688681Y-90162249D03*
X66228681Y-90162249D03*
D19*
X66228681Y-89262249D03*
X68768681Y-89262249D03*
D21*
X68768681Y-90162249D03*
X71308681Y-90162249D03*
D19*
X71308681Y-89262249D03*
D21*
X73848681Y-90162249D03*
D19*
X73848681Y-89262249D03*
D20*
X76388681Y-89262249D03*
D21*
X76388681Y-90162249D03*
X78928681Y-90162249D03*
D19*
X78928681Y-89262249D03*
D21*
X81468681Y-90162249D03*
D19*
X81468681Y-89262249D03*
D21*
X84008681Y-90162249D03*
D19*
X84008681Y-89262249D03*
D21*
X86548681Y-90162249D03*
D19*
X86548681Y-89262249D03*
D21*
X89088681Y-90162249D03*
D20*
X89088681Y-89262249D03*
D21*
X91628681Y-90162249D03*
D19*
X91628681Y-89262249D03*
D21*
X94168681Y-90162249D03*
D19*
X94168681Y-89262249D03*
D21*
X96708681Y-90162249D03*
D19*
X96708681Y-89262249D03*
X99248681Y-89262249D03*
D21*
X99248681Y-90162249D03*
X101788681Y-90162249D03*
D20*
X101788681Y-89262249D03*
D21*
X104328681Y-90162249D03*
D19*
X104328681Y-89262249D03*
X106868681Y-89262249D03*
D21*
X106868681Y-90162249D03*
X106868681Y-70582249D03*
D19*
X106868681Y-71482249D03*
D21*
X104328681Y-70582249D03*
D19*
X104328681Y-71482249D03*
D20*
X101788681Y-71482249D03*
D21*
X101788681Y-70582249D03*
X99248681Y-70582249D03*
D19*
X99248681Y-71482249D03*
X96708681Y-71482249D03*
D21*
X96708681Y-70582249D03*
D19*
X94168681Y-71482249D03*
D21*
X94168681Y-70582249D03*
X91628681Y-70582249D03*
D19*
X91628681Y-71482249D03*
D20*
X89088681Y-71482249D03*
D21*
X89088681Y-70582249D03*
X86548681Y-70582249D03*
D19*
X86548681Y-71482249D03*
D21*
X84008681Y-70582249D03*
D19*
X84008681Y-71482249D03*
X81468681Y-71482249D03*
D21*
X81468681Y-70582249D03*
D19*
X78928681Y-71482249D03*
D21*
X78928681Y-70582249D03*
D20*
X76388681Y-71482249D03*
D21*
X76388681Y-70582249D03*
D19*
X73848681Y-71482249D03*
D21*
X73848681Y-70582249D03*
X71308681Y-70582249D03*
D19*
X71308681Y-71482249D03*
D21*
X68768681Y-70582249D03*
D19*
X68768681Y-71482249D03*
D21*
X66228681Y-70582249D03*
D19*
X66228681Y-71482249D03*
D20*
X63688681Y-71482249D03*
D21*
X63688681Y-70582249D03*
X61148681Y-70582249D03*
D19*
X61148681Y-71482249D03*
D21*
X58608681Y-70582249D03*
D19*
X58608681Y-71482249D03*
D22*
X58738681Y-83097249D03*
X58738681Y-77647249D03*
D23*
X61768681Y-82797249D03*
X61768681Y-77947249D03*
%TD*%
D17*
%TO.C,D46*%
X259246681Y-112909249D03*
X255946681Y-112909249D03*
%TD*%
%TO.C,D31*%
X183046681Y-93859249D03*
X179746681Y-93859249D03*
%TD*%
%TO.C,D17*%
X144946681Y-74809249D03*
X141646681Y-74809249D03*
%TD*%
%TO.C,D9*%
X221146681Y-55759249D03*
X217846681Y-55759249D03*
%TD*%
%TO.C,D3*%
X106846681Y-55759249D03*
X103546681Y-55759249D03*
%TD*%
%TO.C,D16*%
X125896681Y-74809249D03*
X122596681Y-74809249D03*
%TD*%
M02*
