M48
; DRILL file {KiCad (6.0.11)} date Fri Apr 14 22:13:11 2023
; FORMAT={-:-/ absolute / inch / decimal}
; #@! TF.CreationDate,2023-04-14T22:13:11-06:00
; #@! TF.GenerationSoftware,Kicad,Pcbnew,(6.0.11)
; #@! TF.FileFunction,Plated,1,2,PTH
FMAT,2
INCH
; #@! TA.AperFunction,Plated,PTH,ViaDrill
T1C0.0150
; #@! TA.AperFunction,Plated,PTH,ViaDrill
T2C0.0200
; #@! TA.AperFunction,Plated,PTH,ComponentDrill
T3C0.0402
; #@! TA.AperFunction,Plated,PTH,ComponentDrill
T4C0.0590
%
G90
G05
T1
X4.3374Y-2.8893
X4.3374Y-3.6443
X4.5274Y-3.0293
X4.7274Y-3.5593
X4.9524Y-3.6443
X4.9624Y-2.8893
X5.4774Y-3.5393
X5.7024Y-2.8893
X5.7024Y-3.6443
X6.4524Y-2.8893
X6.4524Y-3.6443
X7.2024Y-3.6443
X7.2074Y-2.8893
X7.7174Y-2.7393
X7.9524Y-2.8893
X7.9524Y-3.6443
X8.4674Y-2.7093
X8.7024Y-3.6443
X8.7124Y-2.8893
X9.2074Y-2.7593
X9.4574Y-2.8893
X9.4624Y-3.6443
X9.9574Y-2.7793
X10.2024Y-3.6443
X10.2074Y-2.8893
X10.7081Y-2.8036
X10.9574Y-2.8893
X10.9574Y-3.6443
T2
X2.2074Y-2.6243
X2.2074Y-2.9643
X2.3874Y-2.6243
X2.4474Y-4.4693
X2.4766Y-2.2201
X2.4774Y-3.7293
X3.1374Y-4.3693
X3.1874Y-2.9693
X3.2024Y-3.7193
X3.2024Y-4.4643
X3.2074Y-2.2193
X3.4574Y-4.3693
X3.9335Y-3.7153
X3.9424Y-2.2193
X3.9424Y-4.4693
X3.9474Y-2.9893
X4.2124Y-4.3693
X4.6924Y-3.7193
X4.6974Y-2.2193
X4.6974Y-2.9693
X4.6974Y-4.4643
X4.9524Y-4.3693
X5.4424Y-2.2193
X5.4424Y-2.9643
X5.4424Y-3.7143
X5.4474Y-4.4643
X5.7074Y-4.3693
X6.1874Y-2.2193
X6.1924Y-2.9693
X6.1974Y-3.7143
X6.2224Y-3.4693
X6.5724Y-4.4693
X6.8274Y-4.2693
X6.9374Y-2.2143
X6.9374Y-2.9693
X6.9424Y-3.7193
X6.9674Y-3.5143
X7.6824Y-2.9693
X7.6874Y-2.2243
X7.6874Y-3.7193
X7.6874Y-4.4643
X7.9524Y-4.3693
X8.4324Y-2.9693
X8.4324Y-3.7143
X8.4374Y-2.2193
X8.4374Y-4.4643
X8.7074Y-4.3693
X9.1774Y-2.2193
X9.1774Y-2.9693
X9.1774Y-4.4643
X9.1824Y-3.7143
X9.4574Y-4.3693
X9.9174Y-2.2243
X9.9274Y-4.4693
X9.9324Y-2.9643
X9.9324Y-3.7143
X10.2074Y-4.3693
X10.6724Y-3.7143
X10.6774Y-2.9643
X10.6774Y-4.4643
X10.6824Y-2.2193
X10.9574Y-4.3643
T3
X2.3074Y-2.8143
X2.3074Y-3.5143
X2.4074Y-2.8143
X2.4074Y-3.5143
X2.5074Y-2.8143
X2.5074Y-3.5143
X2.6074Y-2.8143
X2.6074Y-3.5143
X2.7074Y-2.8143
X2.7074Y-3.5143
X2.8074Y-2.8143
X2.8074Y-3.5143
X2.9074Y-2.8143
X2.9074Y-3.5143
X3.0074Y-2.8143
X3.0074Y-3.5143
X3.1074Y-2.8143
X3.1074Y-3.5143
X3.2074Y-2.8143
X3.2074Y-3.5143
X3.3074Y-2.8143
X3.3074Y-3.5143
X3.4074Y-2.8143
X3.4074Y-3.5143
X3.5074Y-2.8143
X3.5074Y-3.5143
X3.6074Y-2.8143
X3.6074Y-3.5143
X3.7074Y-2.8143
X3.7074Y-3.5143
X3.8074Y-2.8143
X3.8074Y-3.5143
X3.9074Y-2.8143
X3.9074Y-3.5143
X4.0074Y-2.8143
X4.0074Y-3.5143
X4.1074Y-2.8143
X4.1074Y-3.5143
X4.1984Y-3.0643
X4.1984Y-3.1643
X4.1984Y-3.2643
X4.2074Y-2.8143
X4.2074Y-3.5143
T4
X2.5774Y-2.3193
X2.5774Y-3.0673
X2.5774Y-3.8153
X2.5774Y-4.5634
X2.8274Y-2.2193
X2.8274Y-2.9673
X2.8274Y-3.7153
X2.8274Y-4.4634
X3.3255Y-2.3193
X3.3255Y-3.0673
X3.3255Y-3.8153
X3.3255Y-4.5634
X3.5755Y-2.2193
X3.5755Y-2.9673
X3.5755Y-3.7153
X3.5755Y-4.4634
X4.0735Y-2.3193
X4.0735Y-3.0673
X4.0735Y-3.8153
X4.0735Y-4.5634
X4.3235Y-2.2193
X4.3235Y-2.9673
X4.3235Y-3.7153
X4.3235Y-4.4634
X4.8215Y-2.3193
X4.8215Y-3.0673
X4.8215Y-3.8153
X4.8215Y-4.5634
X5.0715Y-2.2193
X5.0715Y-2.9673
X5.0715Y-3.7153
X5.0715Y-4.4634
X5.5696Y-2.3193
X5.5696Y-3.0673
X5.5696Y-3.8153
X5.5696Y-4.5634
X5.8196Y-2.2193
X5.8196Y-2.9673
X5.8196Y-3.7153
X5.8196Y-4.4634
X6.3176Y-2.3193
X6.3176Y-3.0673
X6.3176Y-3.8153
X6.5676Y-2.2193
X6.5676Y-2.9673
X6.5676Y-3.7153
X6.7024Y-4.5634
X6.9524Y-4.4634
X7.0656Y-2.3193
X7.0656Y-3.0673
X7.0656Y-3.8153
X7.3156Y-2.2193
X7.3156Y-2.9673
X7.3156Y-3.7153
X7.8136Y-2.3193
X7.8136Y-3.0673
X7.8136Y-3.8153
X7.8136Y-4.5634
X8.0636Y-2.2193
X8.0636Y-2.9673
X8.0636Y-3.7153
X8.0636Y-4.4634
X8.5617Y-2.3193
X8.5617Y-3.0673
X8.5617Y-3.8153
X8.5617Y-4.5634
X8.8117Y-2.2193
X8.8117Y-2.9673
X8.8117Y-3.7153
X8.8117Y-4.4634
X9.3097Y-2.3193
X9.3097Y-3.0673
X9.3097Y-3.8153
X9.3097Y-4.5634
X9.5597Y-2.2193
X9.5597Y-2.9673
X9.5597Y-3.7153
X9.5597Y-4.4634
X10.0577Y-2.3193
X10.0577Y-3.0673
X10.0577Y-3.8153
X10.0577Y-4.5634
X10.3077Y-2.2193
X10.3077Y-2.9673
X10.3077Y-3.7153
X10.3077Y-4.4634
X10.8058Y-2.3193
X10.8058Y-3.0673
X10.8058Y-3.8153
X10.8058Y-4.5634
X11.0558Y-2.2193
X11.0558Y-2.9673
X11.0558Y-3.7153
X11.0558Y-4.4634
T0
M30
